<?xml version="1.0" encoding="UTF-8"?>
<svg data-bbox="15.367 22.282 946.988 1580.36" viewBox="0 0 1002.89 1616.64" xmlns="http://www.w3.org/2000/svg" data-type="ugc">
    <g>
        <g>
            <path d="M145.28 1133.49c0 4.77-1 13.28-1.37 16s-2.55 23.83-2.89 27.4-3.23 27.24-3.57 31.32-5.28 19.07 4.59 23 26.73 6.47 31.83 7.15 22.3 3.4 24.34 3.4 4.94-13.27 5.28-23.48-.85-20.94 0-37.11 2.55-27.24 1.7-33.36-19.91-12.26-22.13-12.26-37.78-2.06-37.78-2.06" fill="#cecece"/>
            <path d="M175.15 1170.6c-.17 7.74-.68 7.91-1.19 14.89s-.51 10.55-1.87 15-2.39 4.25-2.9 11.57-2.89 6 .17 11.92 1.53 7.66 5.11 9.36 4.25 3.4 9 3.91a73 73 0 0 0 8.68.68c2.55 0 7.66-9 7.66-11.57s.34-5.28.34-15.83-.34-12.25-.34-20.77.68-13.1 0-16.17 3.91-5.61-1.53-7.83-10.39-5.1-13.11-5.61-6.64-.17-7.15.34-1.53 3.4-2.21 5.1a18 18 0 0 0-.66 5.01" fill="#040407"/>
            <path d="M383.84 1087.41c11-3 59.7-22.44 64.35-23.22s22.65 37.22 37.65 56.22 33 46 39 49-8.07 0-8.07 0-80.77 5-84.77 5-33.77 7.72-36.77 2.72-6.39-24.74-9.39-35.74-5.84-27.89-5.93-33.39 3.93-20.59 3.93-20.59" fill="#e89f77"/>
            <path d="M322 1081.15c9.53.34 16.34 1 22.81 1s10.89 1 16.68 1 10.21 1 14.3 1.36 10.55 1 10.55 1a21.05 21.05 0 0 0-3.06 8.17c-1 5.45-2.72 13.28-2 18s-.34 4.76 1 11.23.68 11.58 2.38 14 1 6.81-8.85 7.15-20.77.68-25.87-.34a75.4 75.4 0 0 1-14.64-5.11c-1-.68-5.79-7.49-5.79-16s-.68-17-.34-21.45-.68-12.25-.34-13.27-6.83-6.74-6.83-6.74" fill="#10101c"/>
            <path d="M319.66 1204.38c2.18 3 3.4 3.41 8.51 4.43s.68 2.72 7.49.68 2.38-3.75 9.19-2.72 3.06 2.72 11.58 1.7 1.36-1.7 11.91-3.07 4.09 1 12.6-1.36 6.8-2 13.27-5.78 21.79-10.9 15.32-14 6.13-17.36 4.77-23.15c-1.17-5 1.87-13 1.36-18.72-1-11.58-31-10.22-30.64-12.6.24-1.64-28.18 4.39-32.68 3.06-5.79-1.7-14.25-3.34-13.28-4.08 1.35-1 9.54-43.24 3.75-42.55s-20.09 3.06-23.49 3.4-15 3.4-17 6.13-9.87 12.25-9.87 20.42 0 16.68 1.36 23.83 4.08 19.41 6.12 26.22 3.07 11.23 3.75 13.27 15.98 24.89 15.98 24.89" fill="#070707"/>
            <path d="M356.43 1206.09c5.1 0 6.12-.69 9.87-2.39s3.06-1 6.13-4.76 2.72-4.09 7.14-7.83 3.41-3.07 7.15-7.83a26.9 26.9 0 0 0 4.77-8.51s-6.47-1.71-10.21-1.71-10.56-.68-10.56-.68l-3.06 8.17a136 136 0 0 1-5.79 14c-1.36 2.68-5.44 11.54-5.44 11.54" fill="#b3b3b3"/>
            <path d="M437.79 1178.85c-2.05-6.47-1.7-8.85-6.81-9.53s-4.77-2-10.89-.68-3.75 1-10.56 1.7-.68 1.7-9.87 1-5.45.34-13.62-1-9.19-.68-12.93-2-4.09 0-5.11-2-.34-2.73-3.4-4.09-1.71-1.36-5.79-1.7-7.15-1-9.87-.34-3.07-1.36-5.45 1.36-1.36 2.72-4.09 4.77-1 2.72-5.44 3.4-3.07.68-6.47.68-5.11-6.13-6.81.68-6.81 8.85-.68 9.87a61.5 61.5 0 0 0 12.94 1c4.76 0 5.1-.34 6.8-1.36s5.79-1 5.79-1c4.09 3.07 1 5.45 8.85 7.15s10.56 3.75 17.71 4.09 14.63 0 19.74.68 2.38 4.42 9.87 5.1 9.87 2 17 2 7.15 1.7 11.24-1.37 5.78.68 6.81-5.78 3.08-6.16 1.04-12.63m-6.13 3.41c0 2-1.7 2.38-6.47 4.08s-5.1 1.36-12.59 1.7-16-1.7-23.15-3.06-9.54-3.41-16.34-6.13-3.07-2.38-7.15-3.4c0 0 5.1.68 8.85 1.36s4.76.68 11.91.68 6.47-.34 18-.34 9.19-.68 18.38-.68 8.56 3.74 8.56 5.79"/>
        </g>
        <g>
            <path d="M376.34 364.55c0 4.09-4.08 17.36-5.11 21.45a124.4 124.4 0 0 0-3.57 20.94c-.51 8.17-1.53 26-1.53 26S378.38 436 384 438.6s16.34 5.1 22 6.63a122 122 0 0 0 14.3 2.56s2.55-12.77 4.59-22 3.58-21.45 3.58-27.06-10.73-16.86-16.86-18.9-35.27-15.28-35.27-15.28" fill="#02000e"/>
            <path d="M252.26 550.43c-1 2.55-5.11 3.06-5.62 10.21a21.16 21.16 0 0 0 4.59 15.36c2.56 3.06 8.17 6.64 8.17 11.74s-2.55 16.85-2.55 16.85 20.43-.51 33.7 3.07a135 135 0 0 1 25.54 10.21s7.65 9.19 10.21-1.53 9.7-8.17 9.7-21.45.51-24 .51-24a120 120 0 0 1-19.91-4.59c-8.69-3.07-25-8.17-27.07-14.81s-3.06-10.73-5.62-13.28-9.19-4.08-11.23-2.55-11.23 10.21-11.23 10.21Z" fill="#302525"/>
            <path d="M155.23 504.47c-4.08 6.47-15.66 15-19.74 17S126 529 117.79 532s-12.26 6.81-17 8.17-11.24 7.49-11.24 7.49 19.75 11.24 24.51 14.64 10.9 6.47 13.28 9.53 7.15 4.09 5.45 7.15-2.73 0-3.41 4.43a34.5 34.5 0 0 0-.34 7.83h11.92s27.23-25.19 28.93-25.54-8.17-21.44-11.57-28.25-3.09-32.98-3.09-32.98" fill="#4f4029"/>
            <path d="M94.64 543.62c-5.11 2.38-16 13.61-18.73 18.72s-8.85 16.34-9.19 21.45S66 592 66 592s5.79-2.39 10.9.68 5.44 7.49 11.23 8.85 18.38 2 23.15 6.81 15 5.44 15 5.44 3.06-10.21 7.83-14.63a55.5 55.5 0 0 1 11.89-7.87A70.3 70.3 0 0 0 134.81 576c-7.49-7.83-20.43-22.13-27.92-26.56a59 59 0 0 0-12.25-5.82" fill="#02000e"/>
            <path d="M304.68 429.23a86 86 0 0 1-2-10.21s.68 0-6.47 2.72-9.53 2.39-13.28 3.75-3.06-.68-10.21 2.72-7.15 3.07-11.23 6.47a34.2 34.2 0 0 1-11.24 6.81c-5.1 2-6.81 2.38-8.17 3.06a27 27 0 0 1-4.08 1.36s11.91 19.75 16 24.18 5.1 6.8 9.53 11.57 5.79 7.15 8.17 9.53 4.43 6.81 4.43 8.17 1.7.34 6.46-1 4.09-1.36 8.51-1.36 11.58.68 11.58.68.68-18.72 1.36-26.21a143 143 0 0 0 .68-16.68c0-6.81 1.36-10.56 1.7-16a20.5 20.5 0 0 0-1.74-9.56" fill="#302525"/>
            <path d="M274 500.72c.68 4.09 5.11 21.79 5.79 30s1.36 17.7 1.7 23.15 1 16.34 1 17.7 5.79 2 13.62 2.73 9.19-.35 21.79 1 17.36 3.4 17.36 3.4a150 150 0 0 1 10.55-21.45c5.79-9.19 8.85-17.36 11.92-24.51s6.12-12.93 7.15-15.32 3.4-7.14 3.4-7.14-5.11-6.81-8.17-7.83-11.91-5.11-23.49-5.45-23.83-2.72-30.64-2.72-13.61-2.05-17-1-7.83 1.71-9.53 2.73a48 48 0 0 0-5.45 4.71" fill="#02000e"/>
            <path d="M222.64 432.3c2.72-5.79 9.53-12.6 13.62-15.32s5.44-4.77 9.19-7.49 5.1-3.06 6.81-5.45 2.94-3 4.76-6.81 2-5.78 3.75-7.83 4.08-4.76 5.78-5.78 4.77-3.41 6.47-4.43 2 .34 2 .34 2.05 15.32 3.07 23.49a86.4 86.4 0 0 1 1 14v9.87s-6.64 1.53-8.68 2.89-9.7 6-13.11 8.35-12.25 7.14-12.25 7.14-8.51-.68-12.26-3.06-5.11-2.38-6.81-4.77-3.34-5.14-3.34-5.14" fill="#02000e"/>
            <path d="M276.43 430.26c-.34-2.39-2.73-19.41-3.41-26.22s-1-18-1-19.74-3.4-2.39-.68-5.11 18.38-15 22.13-17.36 5.44-5.45 10.55-8.17 5.79-6.47 10.89-7.83 13.62-5.11 18.73-5.45 9.53-1 9.53-1-1 28.94-1.36 32.68-2.39 23.83-2.39 32.68-1.7 21.45-2.38 23.15-18.38 6.47-18.38 6.47-20.09-1-25.19-1-17.04-3.1-17.04-3.1" fill="#302525"/>
            <path d="M333.62 340.38c3.4-.68 11.23-3.06 18.72-3.4s12.94-2.38 19.4-.68 17 3.74 18.39 4.76.68 11.24-1.36 17-6.13 12.25-6.13 15-.34 6.47-.34 6.47a93.3 93.3 0 0 1-18 0c-8.52-1-18.73-2.38-21.11-2.72a49 49 0 0 1-7.49-2.38s-2-13.62-1.7-16.69.34-10.89.34-10.89Z" fill="#4f4029"/>
            <path d="M227.06 425.83a27.36 27.36 0 0 1-8.85 9.53c-5.1 3.41-7.49 4.43-11.23 7.49s-5.45 4.43-8.17 8.51-2.72 6.47-7.83 10.21-8.36 5.47-10.14 7.84-2.46 2-5.52 7.14a36 36 0 0 1-6.13 7.83s7.49 3.75 11.92 6.47 13.19 12.85 13.19 12.85 14-11.15 16.76-13.19 10.56-14 13.28-17.36 14-17.36 14.64-19.41l3.06-9.19s-9.87-6.81-10.55-9.19-4.43-9.53-4.43-9.53" fill="#302525"/>
            <path d="M203.91 627.7c-5.78 3.75-12.25 12.6-16.68 18.73s-7.59 11.63-8.39 14-.46 18.53-.46 18.53-18.72-12.6-24.85-18.73-8.51-18.89-9.19-22 6.13-4.43 2.72-10.56-6.12-8.51-10.55-10.55S124.6 612 124.6 612s-2.39-11.91 2.38-15a127 127 0 0 1 15.66-8.51c2.72-1 16.68 8.17 23.15 12.26s17.36 15.32 21.44 18 16.68 8.85 16.68 8.85" fill="#302525"/>
            <path d="M163.4 564.64c2.39-4.43 7.49-13.19 9.2-16.26s1-7.15 4.08-10.21 6.13-8.85 10.55-10.21 1 .68 8.51-3.75 4.43-5.1 14.64-6.12 11.24-.69 17.36 3.4 14.3 9.87 18.73 17 6.81 12.94 6.81 15.32-4.77 4.08-3.75 10.21 2.73 11.24 5.79 13.62 5.45 3.06 5.79 7.83 2 9.53-1 12.94-5.45 5.78-5.45 5.78-30.3-6.47-41.19-11.57-23.15-8.17-28.6-12.94-21.47-15.04-21.47-15.04" fill="#302525"/>
            <path d="M365.11 507.53c4.08 4.09-5.28 6.81-1.54 9.53s13.28 5.11 13.28 7.49-4.08 2.39 0 6.81 5.11 6.47 7.83 8.51 2.72 1.7 3.06 6.13-2.72 4.77 1 8.85 3.06 6.47 7.83 7.15 6.8-6.47 7.14-17.7-1.36-19.41.69-30.3 2.38-18.72 4.76-24.51 4.09-10.89 6.47-14.64 7.15-13.62 9.19-16.68 4.43-11.23 4.43-11.23-16.68-6.13-20.77-5.79a15.3 15.3 0 0 1-9.87-2.38c-2.73-1.71-3.75-.68-8.17-1.71S386 434 383 432.64s-1.7-1.7-6.13-1.36-1.7.34-6.13-.34a11.1 11.1 0 0 0-7.15 1s2.73 31 2.73 36.42-1.36 14.3-2 18.05.79 21.12.79 21.12" fill="#302525"/>
            <path d="M66.72 583.79c0 4.42-3.4 10.55-1.7 14.3s.68 4.08 1 9.19c.38 5.69 0 4.42-1.36 10.89S62 625.32 62 629.06s-3.18 10.4-5.45 15.66 18.21 2.39 27.75 2.73 13.1-.68 19.23-.68a47.8 47.8 0 0 0 11.57-1.54s-1.36-13.1-1-21.27 0-6.81 0-12.6 9.87-6.81-6.13-12.25S80 590.26 76.6 588.55s-9.88-4.76-9.88-4.76" fill="#3f3232"/>
            <path d="M166.47 565.4c-6.81 1.71-14 4.77-17 7.83s-7.15 6.47-8.17 8.17-2.39 8.51-2.39 8.51 15 8.18 21.79 14.64 9.53 11.24 14.64 15 11.91 7.15 14.64 7.15 6.81.34 8.17 2.72 21.1-12.59 25.87-16.34 8.17-7.15 14.3-7.83 14.64-2 14.64-2-11.58-6.13-22.47-10.55-13.62-6.13-27.58-12.26-18.38-5.78-24.17-9.53a48.3 48.3 0 0 0-12.27-5.51" fill="#4f4029"/>
            <path d="M318.64 616.81c6.81 5.1 9.53 11.23 15.32 12.59a107 107 0 0 1 11.23 3.41s8.51-11.24 9.53-17-1.36-10.56 4.43-14.64 7.83-4.09 9.19-9.87-.68-5.79 4.09-9.88 4.76-2.72 5.1-10.55-1-8.17 3.07-11.91 3.4-3.75 6.12-8.85 5.45-8.86 5.45-10.56-6.17-11.55-8.51-13.29-10.21-8.52-11.92-9.2-8.85-2.72-8.85-2.72-15.32 29.62-16.34 33-11.91 26.21-13.27 35.07-4.43 22.12-6.13 24.85-8.51 9.55-8.51 9.55" fill="#3f3232"/>
            <path d="M195.74 501.4s37.11-38.46 39.15-42.55 7.32-14 7.32-14 10 22.89 15.49 27 12.26 12.25 15 15.66 5.11 9.53 5.11 9.53 1.7 11.57 1 16.68 2 5.45 2 12.6 2 10.55-1.36 15.65a34.8 34.8 0 0 1-12.26 11.24c-4.76 2.72-16.34 6.47-16.34 6.47s-2.72-11.24-10.21-19.75-13.28-14.3-20.42-18.38-7.49-3.4-12.26-7.83l-9.53-8.85Z" fill="#4f4029"/>
            <path d="M304.68 429.23s0 1 4.77-.34 4.76 0 6.46-3.74-8.51-5.45 3.07-5.45 16.34-.68 19.74-.68 8.85-.34 11.92 1.36 2 1 4.76 6.47 2.39 6.13 6.13 4.09 4.09-3.07 5.79-3.41.34 7.49.34 12.6-1.36 28.25-1 37.44 1.36 11.58 1.36 16 1 6.13 0 10.22-2 7.83-2 7.83 0-4.09-8.51-6.81-7.51-4.09-19.51-4.43-15.66 0-22.81-.68a95 95 0 0 1-12.59-2s-.68-44.94.34-53.45 1.74-15.02 1.74-15.02" fill="#4f4029"/>
            <path d="M304.68 429.23c1.7-7.83 4.43-14.29 4.77-24.85s-.68-10.89.34-18.38 2.38-17.7 3.4-19.06 15.32 2.38 21.79 2.38h15c12.93 0 14 0 19.4 1.36s7.83 4.43 7.83 4.43-4.76 23.49-4.42 34 .34 23.49.34 24.85-3.75 4.43-13.62 2-14-3.06-24.51-3.4a213 213 0 0 0-21.45.68c-1 0-7.15-1.7-7.15-1.7" fill="#3f3232"/>
            <path d="M111.66 600.47c-.68 2-2.38 18-2 22.47s.51 22.8.51 22.8 17.7 1.71 22.13 3.75 9.36.51 12.42 4.6 7.83 3.91 9.53 5.95 5.45-9.19 5.79-10.89 4.09-21.79 4.09-21.79-22.51-18.36-28.3-20.42-24.17-6.47-24.17-6.47" fill="#4f4029"/>
            <path d="M216.17 519.79c-4.77 0-9.19 2.72-12.94 4.42s-2.38 3.07-7.83 5.11-6.8 0-10.21 5.11-4.42 2-7.83 11.23-2 10.55-3.74 13.28-4.94 7.15-4.94 7.15-7.68-1.37-12.77-5.09-8.85-6.13-12.93-9.53-8.51-6.13-11.58-8.51-3.4-4.77-3.4-4.77a55 55 0 0 0 7.49-7.15c2.72-3.4 4.77-6.81 7.15-9.87s5.45-7.15 6.81-11.58 2.72-10.89 6.81-16.34 13.27-12.17 16.34-12.85c1.7 3.58 1 2.3 6.46 6.73s7.15 4.08 10.9 6.8 1.36 1.71 7.83 9.2 10.55 10.87 13.61 12.23a11.47 11.47 0 0 1 4.77 4.43" fill="#02000e"/>
        </g>
        <g>
            <path d="M133.28 1017.66c-4.6 1-16.6 5.11-18.9 5.87s-8.93 2.3-8.93 2.3-1 24.51-2.3 28.85-4.6 11-5.36 16.85-1.56 13-1 17.87c.51 4.67-1.35 7 .17 9.2 3.23-.22 9.53 1 15.4-.51s12.77-2.3 14.3-3.07 7.66-6.38 7.91-15.32.26-21.7.26-31.4-.26-21.19-.26-24.77a13.1 13.1 0 0 0-1.27-5.87" fill="#02000e"/>
            <path d="M65.87 1021.74c-1.27 4.86-1.53 4.86-1.53 12s-.51 13.54-.51 20.69 1.53 7.66.77 13.27-3.07 3.32-1.79 10.21 3.06 6.9 3.06 10.47-3.06 8.94-3.06 10.73 1.28 3.57 5.36 4.08 3.57.26 9.19 2.3 13.53.25 14-1 0-5.36 0-5.36l7.41-.51s2-18.9 4.08-26a135.3 135.3 0 0 0 4.6-22.21 79.2 79.2 0 0 0 .51-16.85c-.26-4.6-.77-8.94-.77-8.94a80.2 80.2 0 0 1-21.7-.25c-11.49-1.86-19.62-2.63-19.62-2.63" fill="#3f3232"/>
            <path d="M137.62 1022.51c-16.09 2.81-16.09 3.83-25.53 4.6s-6.13 2.8-19.66 1-15.07-2.56-18.9-2.56a55 55 0 0 0-8.93 1s.06-1.76.17-4.36c.28-6.61.88-18.68 1.61-21.43 1-3.83 1.28-7.66 1.79-16.6s.77-12.76 1.79-18.12 2.55-18.39 3.83-19.41 13-3.83 20.68-2 12.76 3.06 21.44 3.06 16.09.51 16.09.51 3.83 19.41 4.09 25.79.25 16.6.25 24.51 1.28 24.01 1.28 24.01" fill="#302525"/>
            <path d="M100.34 879c1.53-1.28 4.34-4.08 7.66-4.85a53.7 53.7 0 0 1 10.21-1.79 79 79 0 0 1 10.47-.25c3.06 0 5.87-1.79 5.87 0a151 151 0 0 1-.25 18.13c-.77 9.19-3.32 24.25-2.56 31.65s1 11 2 16.86a138 138 0 0 0 3.57 14s-4.85-.26-16.34-.51-18.64.76-22.47-.26a73 73 0 0 1-9.7-3.83s1-8.93 1.79-20.93.51-19.41 2.55-24.51 5.36-11.49 6.38-15.58a30 30 0 0 0 .82-8.13" fill="#02000e"/>
            <path d="M81.7 870.34c-1.27 3.32-3.57 7.66-5.1 12.51s-3.07 8.17-3.07 12.51a131 131 0 0 0 .77 13.28 90 90 0 0 1 .25 11A155 155 0 0 0 83 903.28c2.81-6.9 1.79-5.62 4.85-11.49s4.6-6.9 6.89-10.22 5.11-6.89 5.11-6.89Z" fill="#02000e"/>
            <path d="M102.64 877.74c-1.53 8.69-.77 10.22-3.83 16.09s-4.85 8.68-5.36 15.06-.26 8.43-.51 15.83 0 9.71-.51 13.79-1 10.47-1 10.47a58 58 0 0 0-6.89.51c-3.83.51-9.45 1-9.45 1l-2.55.09s.51-6.22.77-11.83.25-7.66.25-13-3.06-4.59.26-9.19 6.64-15.83 8.68-19.66 4.85-9.95 7.4-13a80 80 0 0 0 5.62-8.17l7.15 2" fill="#4f4029"/>
        </g>
        <g>
            <path d="M386.55 335.7c-21.71-.54-32.25 1.11-34.81 2.64s-9.87 10.38-10.89 14.47-4.21 23.87-4.21 28.47-1.53 13.66 7.15 14.17 17.1-4.73 24.89-3.07c8.89 1.9 7.28 31 10.85 34.73s6.43 6.38 12.56 8.42 21 .26 23.06.77 5.11 4.08 3.06 9.19-.85 7.66 1.7 15.32.86 11.74 1.37 14.3 2 8.17 3.06 11.23 2.55 8.17 3.06 10.72 2.6 11.24 2.6 11.24 13.27-85.79 13.27-92.43-3.06-19.91-3.06-22-5.11-15.82-24-28.08-29.66-30.09-29.66-30.09" opacity=".3"/>
            <path d="M421.28 553.49c-12.09-1.87-15-.34-21.11-4.43a21 21 0 0 1-8-9.53s-20.08 27.92-22.47 33.36-11.23 17.37-13.61 25.2-6.47 22.46-9.54 25.53-8.85 10.21-8.85 10.21 4.77 14.3 6.81 20.08 8.85 12.6 10.55 13.28 17.11-5.19 20.51-10.3 20-28.51 24.09-37.36S414 582.43 415 577.32s6.28-23.83 6.28-23.83" fill="#02000e"/>
            <path d="M407.49 480.64c-2 1.7-8.17 5.79-9.87 17.36a142.5 142.5 0 0 0-1.71 23.83c0 5.79 2.39 7.49-.68 12.6l-3.06 5.1s3.57 7.83 10 10.9 17 3.23 17 3.23 17.2-64.85 16.86-68.6-10.22-5.1-15.66-5.44a66 66 0 0 0-12.88 1.02" fill="#3f3232"/>
            <path d="M403.4 429.57c2.73 2.73 12.26 8.86 12.6 14.3s1 12.26-2.72 17.7-4.43 7.49-8.51 14.3c-.28.46-.55.94-.81 1.43a55 55 0 0 0-3.06 7c-1.81 5-2.82 9.61-2.6 10.26.34 1 33.7.34 33.7.34s5.79-36.43 3.74-43.58-2.38-25.53-3.4-29.62-6.13-8.17-7.83-8.51-18.38 8.86-19.06 10.56-2.05 5.82-2.05 5.82" fill="#02000e"/>
            <path d="M449.17 360.91c-4.43 3.41-20.23 11.47-24.32 16.24S418 386 415 389.06s-3.75 4.43-7.49 7.49S399 398.26 402 401s14 10.55 15.66 12.93 6.47 3.07 8.17 5.45 6.13 3.41 3.75 11.24-5.79 9.19-3.07 14.29 4.77 8.51 5.45 16.68.17 25.37.17 25.37S446.29 372 447.64 367.74a28.6 28.6 0 0 0 1.53-6.83" fill="#3f3232"/>
            <path d="M390.13 420.4c3.4 5.45 3.4 8.49 7.83 9.51s7.15 1.71 9.19-1 1.7-5.1 7.49-7.83a43.2 43.2 0 0 1 9.53-3.4 41.6 41.6 0 0 0-5.79-7.15 39.5 39.5 0 0 0-8.17-6.47l-5.1-3.4s-3.75 7.15-5.11 8.17-9.87 11.57-9.87 11.57" fill="#4f4029"/>
            <path d="M422.13 385.32c5.44-4.43 7.83-5.79 12.25-10.21s6.47-5.79 9.53-8.51 5.11-1.71 7.49-8.17.69-25.2-3.4-27.92a62.4 62.4 0 0 0-10.55-5.11s-21.11 18.05-23.83 20.77-8.17 8.85-10.9 10.55-10.55 4.09-4.76 7.83 7.49 7.49 12.93 10.56 11.24 10.21 11.24 10.21" fill="#02000e"/>
            <path d="M372.77 376.81c2.72 2 12.93 9.87 14 14.3s3.41 5.78.34 8.51-5.78 1-4.42 6.12-.34 7.83 3.06 11.24 6.13 6.47 6.13 6.47 7.49-10.56 10.89-13.62 7.15-9.53 11.24-14 9.19-8.17 10.55-11.23-3.4-10.55-9.53-14-11.92-9.19-14-9.53-6.13-1.36-6.13-1.36Z" fill="#302525"/>
            <path d="M427.91 300.21c-5.1 1.7-23.14 10.22-26.21 11.58s-26.55 15-29.27 17-8.17 10.21-10.56 13.62-4.08 4.76-8.51 8.85-6.13 4.42-8.17 9.53-.34 26.55-.34 26.55 7.83.68 9.53-2 4.09-7.83 10.9-7.83 11.91 4.08 12.59 5.45 14.64-15.32 20.09-18.39 10.55-4.08 16.68-9.53S426.55 341.4 431 339s10.21-4.42 11.23-10.21-14.32-28.58-14.32-28.58" fill="#4f4029"/>
        </g>
        <g>
            <path d="M51.57 649.23c5.62-2 10-16.68 10-16.68s45.53 2.56 50.9 2.81 22.63 1.45 28.51 4.26 15.23 9.78 20.08 13.87 10.46 8.81 12.43 9.79c7.56 3.74 3.27 4.46 3 4.34 0 0 3.06 4.08 3.31 5.1s-.51 5.88-.51 5.88-23.23-11-33.44-13.54-21.7-8.17-33.7-10.21-30.7-4.85-36.58-5.11-24-.51-24-.51" fill="#02000e" opacity=".3"/>
            <path d="M71.87 696.47c-2.93-2.94-8.68-4.09-9.83-4S49 698 46.72 700.3s-5.49 5.61-5.87 6.64-2.42 6.51-2 7.53 2.68 5.36 2.68 5.36 13-8.3 14.17-10.34 16.17-13.02 16.17-13.02" fill="#3f3232"/>
            <path d="M71.74 690.34s.52.77-3.06 2-4.08 2-8.17 3.83-4.08 2.3-8.17 4.09-4.34 1.31-6.34 4.63-3.58 3.83-3.58 7.66 1 14.81.77 16.85.51 7.15.76 10 0 6.38 1.79 11.24 3.83 9.19 3.83 9.19a59 59 0 0 1-7.4-5.88c-3.83-3.57-8.17-4.34-9.7-8.68a29.3 29.3 0 0 0-5.37-9.7c-2.29-2.81-4.08-4.85-5.36-7.4s-2.3.25-3.06-7.66-1.79-12-2.3-16.09-2-10.47 0-15.57 4.09-11.49 6.38-14 6.39-7.41 9.45-10 6.13-6.13 8.68-7.15a54.5 54.5 0 0 1 14.55-2.81c4.34 0 11-1.53 17.37-.25s8.17-1 8.68 3.31 1 16.35.25 18.39-5.36 13-5.36 13Z" fill="#02000e"/>
            <path d="M26.55 750.85c0 4.85-.51 7.15.51 11.49s1.68 5.8 1.54 10c-.26 7.4 3.07 9.66 6.63 18.64 2.94 7.4 5.75 23.87 9.32 29.1 3.24 4.74 2.05 11.36 6.9 16s5.74 3.7 6.76 8.3 7.15 8.68 7.66 12.25-1.15 5 3.58 7.92c7.2 4.48 6.12 1 9.19 5.36s5.1 7.91 15.32 8.43 17.1-3.07 23-4.35 12 1.54 14.29-1 7.66-3.83 9.2-11.23 4.85-14.55 4.59-20.94-2.81-11.74-2.81-15.32-2.55-6.89-2.55-6.89-20.68 8.94-24.51 8.94-20.68 2-30.38-3.58-18.64-9.19-23.49-18.38-20.43-29.62-22.47-33.7-12.28-21.04-12.28-21.04" fill="#302525"/>
            <path d="M43.15 781.74c4.08 5.37 6.64 13.28 7.15 15.32s3.06 6.64 4.59 10.73 3.83 6.38 3.58 11.74 2 15.07 7.4 16.34 20.17 1.79 25 .77 9.2-6.38 15.32-7.41 8.17-.76 15.32-2.8 7.15-1.54 12.26-3.58 7.91-3.06 9.44-5.87 5.62-5.87 5.62-5.87-29.11 1-39.06-2.05-17.36.51-24.26-7.66S59 781.23 58.47 780.47s-4.09-3.83-4.85-3.58-10.47 4.85-10.47 4.85" fill="#02000e"/>
            <path d="M17.84 710.41c.8 3.42 2 13.4 1.56 17.46-2.8 24 2.3 27.32 4.09 28.85a38.6 38.6 0 0 0 4.85 3.83c3.57 2.56 5.11 4.09 5.11 9.19s-2.05 6.39 1 10.22 6.4 8.68 11.55 11.74 8.17 6.64 13.27 8.17 5.88 3.07 11.75 3.58 17.62 1 17.62 1-10.22-6.13-17.37-13S61 784.3 55.4 772.55s-7.91-16.34-9.7-21.95-.89-14.05-1.91-18.64-1.15-20.43-.64-22.47-25.31.92-25.31.92" fill="#302525"/>
            <path d="M110.55 678.09c-7.91 1-20.17 3.57-23.23 4.34a23.9 23.9 0 0 0-7.66 3.31 28.5 28.5 0 0 1-3.36 2c-1.23.64-2.26 1.12-2.26 1.12s1-10 1-12.26-.25-6.89-.25-9.19v-7.15c0-1.53 1.79-5.1 1.79-5.1l24.76 1.27 8.94 1Z" fill="#302525"/>
            <path d="M121.79 644.64c-4.6-.26-10.47-.51-15.07-.51s-10-.51-16.34-.26-11 1.28-16.59 1.28-11.75-.26-14.3-.51-2.81-2.81-5.36-.51-4.34 4.85-6.9 7.15-7.4 6.38-8.17 6.89 12.26-1 19.15-.77 10.73 1 17.88 1.79 7.65.51 15.31 1.28 9.2 1.27 12.26 1 7.15-.26 7.15-.26Z" fill="#3f3232"/>
            <path d="M107.49 676.55c.25-4.34-1.79-13-.77-15.32s1.54-4.59 3.83-6.89 3.83-5.11 5.62-6.38 5.62-3.32 5.62-3.32 9.7 1 14.81 3.06a57 57 0 0 1 12.51 6.39 85 85 0 0 1 7.15 5.87s-2 1.27-2 6.64a104 104 0 0 0 .51 11.23c.26 2.3 1 8.68 1 8.68s-12-8.77-14.8-9a143 143 0 0 0-15.83-1.19 70 70 0 0 0-14.56 1.79 22.5 22.5 0 0 0-3.83 1.53Z" fill="#4f4029"/>
        </g>
        <g>
            <path d="M737.87 782.77c9.7.25 10.47-.77 18.64-3.58s6.38-6.89 10.47-4.34 9.7 9.45 13.28 12 7.65 5.87 8.42 7.92 2.81 6.12 1.28 7.91-9.7 2.55-16.09 2.81-14 5.11-18.38.77-7.66-9.71-10.72-12.77-6.9-10.72-6.9-10.72" fill="#302525"/>
            <path d="M700.09 751.11c7.65-1.54 5.36-2.56 13.78-5.62s10-2.3 14.81-5.62a45.5 45.5 0 0 0 8.68-8.17s-8.68-4.08-14-4.34a198 198 0 0 0-22.47-.25c-11 .51-16.85 1.27-20.68 2.8a77 77 0 0 0-9.19 4.86s-1.53 3.32 8.42 7.66 20.65 8.68 20.65 8.68" fill="#02000e"/>
            <path d="M666.64 715.87c-3.07 3.83-1.79 3.58-6.38 7.92s-7.15 5.61-6.64 7.15 11 5.36 19.66 4.59 10.46-1 23.23-2.81 15.06-3.06 22.21-2.81 9.19 1 16.34 1.28 19.41-8.68 26.3-16.34 14.81-16.08 14.81-16.85-1.79-4.34-9.7-4.34-14.81-2.3-28.6 2.81a277 277 0 0 1-26.55 8.68c-8.94 2.55-19.41 3.06-30.64 6.89s-14.04 3.83-14.04 3.83" fill="#302525"/>
            <path d="M802.72 834.6c10.22-.51 14-.26 17.62-2.81A39 39 0 0 0 831.57 818c2.56-5.62 4.09-13 4.09-14.55s-8.17-3.58-13.28-1.79-11 4.6-16.59 4.85-10.22-1.79-9.7 1.28-1.54 4.59 2 10.21 4.85 5.62 4.85 8.68-.22 7.92-.22 7.92" fill="#302525"/>
            <path d="M786.13 795.79c3.06 6.64 2 10.47 5.36 11.74s-.77 3.07 5.11 3.32 6.89 1.79 13 0 5.87-2.81 13-3.32 8.93-.51 10.47-.51 1.66.89 1.66.89 4.27-21.57 4.27-27.44-.26-7.92 2-14.56 1-9.19 1.53-16.85 1.79-11.74 1.79-14.29-.51-4.09-5.62-3.58-12.25 2-12.25 2 2.81-5.36.51 7.15-.77 15.07-11.75 26-9.44 12.12-18.89 17.23-10.21 9.32-10.72 10.08.53 2.14.53 2.14" fill="#3f3232"/>
            <path d="M599.36 750.6c9.7-7.92 7-9.45 17.75-12.77s10.72-4.85 16.59-5.36 8.94-.9 12-1.15 3.83-.38 10-.64a28.3 28.3 0 0 1 11 1.79s.76 3.32-6.64 7.91-14.55 11.75-16.85 11.75H631.4c-7.91 0-13 2.55-17.61 2.55s-14.43-4.08-14.43-4.08" fill="#02000e"/>
            <path d="M641.36 749.32c-7.91-.77-6.89-1.28-16.85-.77s-6.89 0-15.83 1c-2.63.31-4.47.5-5.88.65a38 38 0 0 0-8.16 1.65c-5.36 1.53-8.43 1.28-12 3.07s-5.11 1.78-8.94 5.61-7.66 6.13-9.7 8.68-3.57 4.6-3.57 4.6 10-3.06 19.66-.77 8.68 2.56 18.38 6.9 14.55 7.66 17.62 8.68 6.12 6.13 8.17 1.27 2-6.63 2.29-11.74-1.53-7.66 1.28-12.26 7.4-7.4 10.72-9.44 2.81-7.13 2.81-7.13" fill="#302525"/>
            <path d="M738.26 780.47c4.08 4.59 7 10.72 11.87 15.57s-1.79 6.39 8.17 7.41 8.17-1.54 15.57-2.05 7.15-3.83 13 .51 6.13 1.79 9.71 8.94 4.08 4.09 5.61 11.49 2.56 10 2 11.49-11 3.32-16.86 3.57-9.95-2-17.61-3.06-15.83-.25-22.73.77-11 1.78-15.32 1-5.36 1.53-10.46-4.34-9.19-10.22-10-13.28-2.81-4.6-4.6-10-4.59-4.85-2.55-8.93 7.92-8.94 12-10 5.11-1 9.7-1 6-4 7-4.73 5.5-3.36 5.5-3.36" fill="#02000e"/>
            <path d="M704.17 799.62c2.81 5.36 3.06 5.1 6.38 12s1.28 8.17 6.64 13.27 8.94 8.68 10 9.2 1 4.08-3.06 5.61-15.83 2.3-16.6 2-4.85-2.29-9.19-8.93-9.7-11-9.7-13-2.81-3.07 2-7.66 13.53-12.49 13.53-12.49" fill="#3f3232"/>
            <path d="M639.32 747.28c-6.64 3.32-8.17 3.57-11.49 9.7s-6.13 3.32-5.87 12.76 0 12.77.25 15.58-2.81 3.06 3.07 6.38 31.4 14.81 34 15.83 5.62 1.53 14 3.32 9.19 1.28 12 4.34a19.3 19.3 0 0 0 4.85 4.09s9.19-8.94 13-14.3 4.08-7.41 4.08-7.41-10.21-23.48-21.42-29.87-25.28-13.53-29.62-15.06-16.85-5.36-16.85-5.36" fill="#4f4029"/>
            <path d="M636.26 748.55c4.59-6.12 6.63-7.15 12.51-10.21s11.74-7.15 14.55-7.15 28.59 13 35.74 17.87 10.47 7.15 16.6 13.79 2.3 7.66 9.45 9.45 6.89 0 9.95 3.83a63 63 0 0 1 4.85 6.89 3.86 3.86 0 0 0-5.36 2c-1.78 3.83 4.85 5.88-4.59 5.88s-8.68-3.83-13.28 1-4.85 4.85-7.4 7.91a19.4 19.4 0 0 1-4.85 4.34 26.25 26.25 0 0 0-7.15-17.36c-7.41-7.66-4.6-7.66-18.64-16.85s-15.07-11-23-13.79-19.38-7.6-19.38-7.6" fill="#302525"/>
            <path d="M828.77 738.85c2.91-.61 15.06-.38 15.06-.38s.26-11.62 2.55-17.49 2-12.51 6.13-16.09 6.89-4.59 5.87-11.74a34.6 34.6 0 0 0-4.38-12.38s-15.57-.64-25 .12-26.81-.25-28.59-.76-13-2.81-16.09 2.55a72 72 0 0 1-8.17 11.49 86 86 0 0 0-5.36 7.92c-.51.76 26.55 19.4 29.1 20.68s24.26 16.59 24.26 16.59Z" fill="#302525"/>
            <path d="M714.89 738.6c5.88 2.8 19.15 12.51 26.81 19.14s14.81 12.26 20.68 17.11 6.39 7.41 12 11.75 10.22 9.7 13.28 8.68 8.68-6.9 12-10.22 3.83-6.63 11.49-12.76 9.7-11 13.53-14 8.94-4.6 9.45-9.2c.41-3.7 1.15-6.91-2.45-10.82a23.4 23.4 0 0 0-3.42-3A158 158 0 0 0 809.62 723c-8.94-5.11-12.77-8.42-18.39-11s-13.78-7.4-15.57-8.17-3.83-4.85-6.64-2-9.7 10.47-15.57 15.83a77.5 77.5 0 0 1-20.94 13.53c-6.89 2.81-17.62 7.41-17.62 7.41" fill="#4f4029"/>
            <path d="M720 631.87a45 45 0 0 1 1.79 12.51c0 5.62-5.36 15.83-2.3 16.6s15.32 1.28 18.64-.77 14.55-8.42 17.87-11a11.74 11.74 0 0 0 4.85-11.74c-.76-5.62-6.64-11-3.06-13.79s33.19-35.74 35-37 10.21-11.49 11.23-14a46.7 46.7 0 0 0 1.79-7.66s-.26-5.87-7.41-4.85-14.81 1.78-15.83 3.06-5.61 1.79-8.42 8.94-10.22 22.72-15.58 27.06-20.17 11.49-25.78 18.38S720 631.87 720 631.87" fill="#3f3232"/>
            <path d="M716.68 662c6.38-1 8.68-3.06 15.06-4.09s6.9-3.82 11-4.85 4.6-.51 14 3.32 12 3.83 11.49 9.71-3.58 11.23-2.81 14.55-.51 15.06-.51 15.06a119 119 0 0 0-14.3 2.81c-6.38 1.79-11.24 2.3-18.9 3.83s-10.72 4.34-13.27 4.6-7.66-6.9-7.66-8.17-2-13.28 1.79-19.15 4.11-17.62 4.11-17.62" fill="#4f4029"/>
            <path d="M753.7 637.49c-.76 3.57 2.56 5.87-3.06 9.45a113 113 0 0 1-11.75 6.38s15.32 2 18.9 7.91 5.87 7.66 4.85 11.24-2.3 2.81-2.55 7.91 1.53 6.39 1.78 9.71-2.3 6.38-2.3 6.38a16.94 16.94 0 0 0 14.56.76c7.91-3.32 7.66 0 11-5.61s1.53-7.66 7.15-8.17 14.55-.26 14.55-.26 2.3-3.32 2-12.76-1.53-9.71 3.06-15.58 7.92-3.83 8.94-16.08 1-16.86-.25-18.9-10-7.15-15.83-3.57-19.41 5.87-27.07 8.68-16.34 7.4-17.61 9.45-6.37 3.06-6.37 3.06" fill="#302525"/>
            <path d="M663.45 662.77c0 3.32 1.27 7.53 1.27 11.87s3.83 6.76.26 13.91.38 5.36 1.15 11.75-1 5.36-1 11-3.58 12-3.58 12 23.49-8.17 28.85-9.19 8.17-3.58 14.81-3.83 12.26 0 14-1 1.54-1 .77-9.7-.26-12.25-.26-19.91-2-13.53.26-14.81 5.11-1.53 5.87-8.43 1.53-6.38 1.28-11.49-2.81-11.23-2.81-11.23a22.5 22.5 0 0 0-12.51 6.64 47.5 47.5 0 0 1-20.68 12.25c-7.64 2.25-27.68 10.17-27.68 10.17" fill="#3f3232"/>
            <path d="M814.72 616.81c-1.78 5.87 2.56 9.19 2.56 16.08s1.78 8.43-2.3 14.56-4.6 5.36-6.89 8.93-3.83 3.83-3.58 8.43 2 13.28 1.28 15.32-1.79 4.34-1.79 4.34 38.55 0 41.36-.26a102 102 0 0 1 10.6.39s-4-7.79-5.24-13.92-4.85-15.57-4.85-23.74.26-13.54-.76-18.9a103 103 0 0 1-1.28-12.76s-14.55-2.81-18.38-2.3-10.73 3.83-10.73 3.83" fill="#4f4029"/>
            <path d="M698 564.21c4.09-2.55 4.6-4.34 10.22-4.08s7.4 1.27 8.17 1.78-6.9 13.28-6.13 15.83-.77 16.09-.77 22.47-.76 16.6-2 18.39-9.19 8.4-13.49 9.19-9.19 1.27-9.19 1.27.25-2.29 1.53-11 .51-13.28 1.27-19.92-.51-13.53 2.81-20.43a138 138 0 0 1 7.58-13.5" fill="#302525"/>
            <path d="M733.28 627.28c-1.28 2.81-7.15 8.68-11.75 11.49s-4.34 3.32-9.7 9.19-7.15 11.23-15.32 12.51-14.51 3.53-19.66 3.06-12.25 4.85-12.25.51-1.28-7.15 4.59-8.68 5.87.77 8.43-5.36 1-4.09 1.53-10.47a23 23 0 0 0-1.53-10.72 103 103 0 0 0 13-2.55c5.1-1.54 10.21-3.32 11.74-5.37s3.83-9.44 4.6-17.61-.77-13.28 0-18.64.76-8.94 2.81-13.53 5.61-12 5.61-12 10.22-3.83 12.26-4.09 7.91-.25 7.91-.25Z" fill="#02000e"/>
            <path d="M730.47 555c1 6.64.51 11.75.51 22.47s-1.79 12.25-1.53 22 1 12.51 1.27 18.38-2.29 15.57-2.29 15.57 20.17-22.72 26-27.83 11.74-12.76 16.08-16.34a67 67 0 0 0 7.41-7.14s2.3-1.79.76-9.2 1.54-9.19-8.93-11.74a266 266 0 0 0-27.32-4.85c-1.24-.02-11.96-1.32-11.96-1.32" fill="#302525"/>
            <path d="M839.74 548.89c.77 2.56 1.28 11.24 3.58 15.83a46.5 46.5 0 0 1 4.34 19.66c-.26 6.64.77 24.51-1 28.34a28 28 0 0 1-2.96 5.28s-21.57-1.15-26.17.38-5.1 3.57-8.93 5.87-5.62 5.11-12.51 5.62-5.11-2.55-13 .77-8.68 5.36-15.32 6.63-10.72 1-13.78 2.56-1.53-13-1.53-15.83 16.08-19.15 21.44-23.75 8.94-11.23 12.51-15.57 3.07-7.41 7.15-12.26 9.7-11 10.73-11.23 7.91-6.89 13.53-9.7 10.47-5.62 13.53-5.88 8.39 3.28 8.39 3.28" fill="#02000e"/>
            <path d="M669.45 526.68c-2.3 5.11-7.41 12.26-8.17 15.06s-3.32 5.11-3.32 9.71.76 28.34 2.55 33.95 5.87 11.49 7.15 16.86-.77 6 1.79 11.1 4.34 19.41 4.34 19.41 13.78-.39 15.57-7 4.09-12 3.58-18.89-1.79-14 1.53-20.68 2.81-6.38 5.87-13.53 5.11-10.21 3.57-13.53-12.51-18.9-13.78-26.56-1.79-13.78-2.81-16.59-11.11-2.56-11.11-2.56Z" fill="#02000e"/>
            <path d="M704.43 491.45c-2.56 2.29-4.09 4.34-8.43 6.89s-14.5 7.94-16.09 9.7a47 47 0 0 0-4.21 5.75s8.81 4.21 8 14.17-2.55 10.72 0 16.34 3.58 9.19 3.83 14-8.17 8.68 0 8.94 18.64-3.83 18.64-3.83 4.09-3.07 4.85-10.47.51-10.72 0-24.51-6.59-36.98-6.59-36.98" fill="#3f3232"/>
            <path d="M764.68 576a40.5 40.5 0 0 0 13.32 1.49c4.85-.26 6.38 4.34 7.15-2s-2.3-8.68 2.29-10.22 1-1.53 10-1.27 21.7 2.55 25.79-.51 1.28-9.19 3.32-11.75 2.81-3.57 5.87-2a38 38 0 0 0 7.92 2.47s-1-15.49-1.79-22.64-2.81-13.53-4.09-20.17a95.4 95.4 0 0 0-4.59-14.81s-9.45 8.43-15.07 9.45-16.59 2.3-16.59 3.57-5.11 19.92-8.94 25.28-17.1 24.51-18.89 27.57-5.7 15.54-5.7 15.54" fill="#4f4029"/>
            <path d="M726.89 560.89c7.15.26 8.17-.76 14.05 3.32s2 5.62 8.93 8.68a81.6 81.6 0 0 0 16.6 5.11c.76 0 12.25-12.77 14.55-16.6s5.11-6.12 10.47-15.83 6.64-11.48 8.42-18.38 3.09-16.34 3.09-16.34-9.45-12.25-15.07-17.62-11.23-10-16.85-11.74a104 104 0 0 0-14.55-3.32c-.77 0-7.66 8.68-10.47 12.26s-7.4 1.78-6.89 10.72 2.55 17.11 1.79 23.49-3.83 14.81-7.92 23-6.15 13.25-6.15 13.25" fill="#3f3232"/>
            <path d="M757.79 476.38c-.26 2.81-3.83 13.79-5.88 15.32s-5.1 2.81-6.38 5.62-.25 13.79-1 22.47-2.81 13.27-5.11 18.64-3.06 5.87-3.06 10.46-1 14.05-1 14.05l-29.11.51s4.09-7.15 2.3-12.77-2.81-6.38-3.06-14-.77-12.51-.26-18.13-.51-12.25-.76-17.62-4.34-13.27-4.34-13.27 13.78-11.75 17.87-11.75 24 1 28.08 1 11.71-.53 11.71-.53" fill="#4f4029"/>
            <path d="M723.06 740.38c-9.95 2.81-18.89 3.83-20.68 6.64s-6.38 3.07-2 6.64 7.15 4.08 12.51 10 5.87 9.7 12.77 11 7.4 2.8 11.74 6.38 6.64 5.62 13 3.32 7.92-1.53 11.49-4.85 11.24 2.29 2.56-6.13-15.07-13.79-22.22-19.92-19.17-13.08-19.17-13.08" fill="#3f3232"/>
            <path d="M757.53 479.19c-7.4-1.28-17.1-.25-23-.25s-22.46.89-23.49.89 2.81-6.77 5.62-8.55 6.13-6.64 13.53-7.41 16.09-2.3 21.45-2.55 10-.26 11-.26-5.11 18.13-5.11 18.13" fill="#02000e"/>
            <path d="M802.47 437.32c.25 1.53 11.74 19.66 14.3 24.51s2 12 4.85 15.32 4.34 2.3 5.87 7.4 2.64 11 2.64 11l-14.39 31.92-13.19-12.17s3-58.56 2.73-61.11-2.81-16.87-2.81-16.87" fill="#02000e"/>
            <path d="M738.13 399.53c1.27 1.79 19.66 35 20.17 41.36s4.59 18.11 4.59 18.11l-5.36 20.17s13.53 3.58 18.64 7.92 16.09 15.06 19.15 19.15 7.23 9 7.23 9 7.58-20.51 7.58-27.66-.77-18.64-1.28-26.05-1.53-17.36-2.81-20.68-9.44-18.12-17.61-22.21-23.49-14-30.13-15.06-20.17-4.05-20.17-4.05" fill="#302525"/>
            <path d="M695.15 350.85a144 144 0 0 1 17.11 6.64c3.06 1.53 37 17.36 40.08 20.42s22.72 16.35 26 20.69 10.73 12.76 13 15.83 7.41 6.63 8.69 12 4 8.93 5.53 12.51a57.5 57.5 0 0 1 2.64 8.93s-15.07-19.4-22.47-25.27-10.22-8.69-17.88-11.24-11-5.36-15.57-5.87-11-1.28-11-1.28-20.42-24.89-25.79-30.76-20.34-22.6-20.34-22.6" fill="#3f3232"/>
            <path d="M906.13 1041.15s12.8 1.18 12.25 10.72-6.89 9.19-1.53 15.32 8.43 9.19 12.26 16.09 9.19 12.25 7.66 16.08-3.07 13-10 11.49-13-3.06-18.38-4.59-15.32-2.3-15.32-2.3-1.54-4.6-7.66-15.32-21.45-6.13-10-16.09a108 108 0 0 0 18.38-20.68Z" fill="#02000e"/>
            <path d="M783.57 1131.53c18.39-.76 24.52 1.53 39.83.77s32.17-1.53 43.66-6.9 18.39-11.49 27.58-16.85 7.66-13 21.45-14.55 19.91-.77 19.91-.77-.77-6.12-13.79-10-17.61-3.83-23-7.66a53.5 53.5 0 0 0-12.25-6.13s-41.36 16.08-46.72 22.21-4.6 13.79-23 21.45a201.6 201.6 0 0 0-33.67 18.43" fill="#4f4029"/>
        </g>
        <g>
            <path d="M672 346.68c7.15-.51 30.64 6.13 37.28 9.7s17.36 7.66 20.93 10.22 32.17 41.36 35.75 47a97.1 97.1 0 0 1 11.74 31.15c2 12.26 4.6 21.45 1.53 23.49s-9.19 11.75-21.7 11-23.74-.76-28.85 4.85-5.11 15.83-11.74 20.43-16.85 6.64-22.47 10.21-8.68 12.26-11.75 20.43-8.68 14.29-10.21 19.4-3.57 30.64-3.57 30.64-20.43-11.29-18.39-30.2 4.6-70 4.6-77.62.51-68.42.51-80.68 1.53-54.63 1.53-54.63Z" opacity=".3"/>
            <path d="M614.81 316.89A33.6 33.6 0 0 0 624 322c4.09 1.7 4.43 5.11 9.53 5.11s5.11 1.36 9.53 2.72a45 45 0 0 0 8.17 1.7s4.09-9.19 4.43-12.93 1-10.9 1-10.9a101 101 0 0 0-8.17-10.55c-3.83-4.09-5.45-6.47-9.19-8.85s-8.51-6.47-9.87-6.81-4.07 9.51-4.43 11.57-10.19 23.83-10.19 23.83" fill="#302525"/>
            <path d="M618.55 316.55c3.45-4.08 4.45-7.15 7.15-10.55a47.5 47.5 0 0 0 6.81-10.89c1.36-3.41 1.66-10.39 1.66-10.39 2.26 1.28-14.28-10.28-19-10.72s-7.15 5.79-7.83 11.57-1 9.54-1.36 13.62-.68 14.64-.68 14.64l8.17 4.77Z" fill="#02000e"/>
            <path d="M721.23 377.4c-4-8.89-9-14-15.53-19.74-6.38-5.62-28.93-25.79-32-30.21s-3.74-4.09-7.83-9.19-6.81-6.81-9.19-10.56a60 60 0 0 0-4.42-6.13s-1.71 12.9-1 14.79 1 6.66 0 8.36a30 30 0 0 0-2 5.11s21.79 8.51 23.15 11.91 1.36 7.83 1.36 14.64 1.7 15 4.09 18.05 2.99 11.57 2.99 11.57a44.6 44.6 0 0 0 11.58-.34c6.46-1 16.68-2.72 19.4-4.09s9.4-4.17 9.4-4.17" fill="#3f3232"/>
            <path d="M676.43 444.21s8.85-6.47 9.87-9.19 3.06-5.11 1.7-14.64-3.4-23.49-3.4-26.21a113 113 0 0 0-2.05-15c-.68-2.72-2-2.72-3.4-9.19a45.3 45.3 0 0 1-1.36-13.28c0-6.12 0-6.12-2.73-11.57s-1.36-8.51-4.42-12.26a26.8 26.8 0 0 0-10.21-7.83 36 36 0 0 0-8.73-1.74l-4.21 7.87a114 114 0 0 1 10.34 13.32c4.08 6.47 5.74 7.36 5.74 16.21s.52 21.54.52 25.28-2.3 14-1.28 15.66.68 12.25.68 16.34 3.74 10.89 4.77 12.6Z" fill="#02000e"/>
            <path d="M699.4 497.06c4.09-3.4 6.47-5.44 8.86-9.87s2.72-6.81 5.1-10.55 5.45-7.15 7.49-7.83l2-.68 4.43-.34s-5.11-22.13-6.81-27.58-4.77-15.66-11.23-25.19-11.24-14.3-14-17.7-11.23-13.62-11.23-13.62-4.43 9.53-4.77 13.62-2 3.4 1.36 10.55 6.13 12.6 6.13 16-1.7 9.87-4.09 12.26l-5.1 5.1s3.06 15 3.06 19.41-1.36 10.55 3.41 15 9.19 10.21 10.21 11.23 5.18 10.19 5.18 10.19" fill="#302525"/>
            <path d="M683.57 384c7.83-1.7 13.28 1 19.75-2s12.94-5.78 14.64-6.12 8.85 5.1 14.64 13.61 6.46 10.22 11.91 18.05 8.85 13.61 10.21 18.72 7.83 21.11 8.51 23.49 6.81 9.87-1 11.91-21.44 1.71-25.53 3.41a77 77 0 0 1-9.87 3.06 57.8 57.8 0 0 1-7.49-18 101 101 0 0 0-11.92-28.94c-5.1-8.51-10.89-16-14.63-21.1S683.57 384 683.57 384" fill="#4f4029"/>
            <path d="M681.19 452.72c-1-8.85 0-7.83-3.06-15.32s-3.07-4.42-4.77-11.91-2.72-7.83-5.1-12.6-5.45-11.23-5.45-11.23.34 4.08-1 14.3-.68 11.57-2.39 20.08.34 22.13.69 23.49 4.42-3.4 8.17-4.08 12.91-2.73 12.91-2.73" fill="#3f3232"/>
            <path d="M686.43 505c2-1 13.66-8.55 13.66-8.55a33 33 0 0 0-4.73-9.2c-3.74-5.44-6.51-5.74-10.42-12.38-3.31-5.6-1.37-7.49-1.37-15s.34-11.23.34-11.23h-2.73c-4.3.1-12.41.44-14.63 1.67a25 25 0 0 0-6.81 6.13c-1 1.36-.34 8.51-.34 8.51s-.34 1.7 4.77 6.47 8.17 12.25 11.57 16.68 10.69 16.9 10.69 16.9" fill="#4f4029"/>
            <path d="M659.74 564.21c.69-11.23 5.45-17.53 7.83-21.61s4.09-5.79 4.43-9.88-1.36-6.46 2-12.25 4.77-10.21 8.85-12.94 6.85-4.34 6.85-4.34a30.6 30.6 0 0 1-10.59-10.64c-3.75-6.81-2.38-5.44-6.13-11.23s-2-7.83-6.13-11.58a71 71 0 0 1-6.8-7.14S657 480.3 657 486.43s.34 14.29-1.36 18-2.72 12.93-1.7 18.72.68 16.34 1 23.15 4.8 17.91 4.8 17.91" fill="#302525"/>
            <path d="M648.68 732.38c5.11-.68 9-3.06 13.79-.68s4.93 4.94 12.08 3.92 2.22.17 11.07-.51 12.42-2.73 22.81-3.92c10.23-1.17 10.55.51 21.44-1.19s10.73-2.38 18.22-8.17 19.06-18.38 21.78-20.77 21.28-2.21 29.45-2.89 9.87 3.06 18 4.09 15.32 1.7 19.07-.35 10.89-1.36 14.29-3.06 7.66 0 7.66-4.76a21 21 0 0 0-2.55-9.2s-12.6 2.39-19.4 2.73-6.47.34-15.32-1.71-38.81 5.62-49.71 7.66-24.68 6-32 6.64c-7.61.71-27.57 9-46.8 13.28-18.72 4.14-25.37 8.51-31.15 8.51s-12.73 10.38-12.73 10.38" opacity=".3"/>
        </g>
        <path d="M355.15 664.81c0 2-4.77 6.84-.77 11.23s8.94 5.45 8.94 9.45-12.17 7-8.17 11 14 .66 12 7.66-6.24 22.94.76 25.27 10.45-2.49 9.45.51-.06-.32 1.79 3.83a29 29 0 0 0 2.81 5.37s28.39 5.77 34.39 8.77 59.47 11.3 75.74 21.15 49.31 27.4 49.31 27.4 21.42-26 28.09-32c13.4-12.12 18.77-9.44 29.87-13.78 7.53-5.75 18-12.72 23-13.72s0 0 14-3 13.49 5 24.25-7.5S671 700.94 672 694.94s-5.87-27.07.77-32.43c5.5-4.44 6.53-6 7.66-18.64 1.27-14.3-2.81-19.91-5.62-26.55-2.34-5.53.1-.64-3.83-22.72-4.09-23-10-24-10.72-34-1.08-14 9.09-191.76 3.09-206.76s-14.23-25.2-16.11-25.6-18.09-12.24-22.39-12c-4.11.24-8.68.55-8.68.55s17.81 6.71 17 16.87-3.45 24.1-8.13 32.63-23.69 33.53-28.69 38.53-4 11-17 16-17.78 10.69-37.89 7.35-35.71.74-50.41-13.8-20.73-21.14-28.71-33.84-10.74-22.8-10.74-22.8-10.25 16.09-9.25 29.09-8.18 74.55-9.09 91.28-27.91 116.72-30.91 121.72-9 29-13 35-19 28-25 29a55 55 0 0 1-9.2.99" fill="#078292"/>
        <path d="M336 726.09c14.81-1.54 28.6 3.06 44.43 6.12S407 736.3 430 742.94s41.87 12.76 61.27 20.42 26.56 9.19 31.15 16.34 11.75 11.75 5.62 16.85-14.81 25.54-23 33.71-23.49 22.46-33.19 28.59-15.83 14.3-23 11.75-6.64 1-17.36-14.3-16.85-20.94-24-35.24-25.49-28.59-31.66-39.83-9.7-26-13.28-31.14-26.55-24-26.55-24" fill="#2b4172"/>
        <path d="M331.91 789.4c10.22 10.22 22.47 24 28.09 31.15s18.13 7.15 22.21 14.3 11 26.81 19.15 36.51S407 889 416.17 896.64s12.77 15.32 26.55 18.89 18.9 3.58 38.3 4.6 31.41-.77 50.81-3.83 60.77-9.19 72-14.81 15.06-8.43 35-12 23.49-5.11 39.32-5.62 11.23-9.19 23.49-.51 4.59-4.59 17.87 15.32 12.25 28.6 9.7 33.7-55.66 106.73-70.47 117.45-89.36 28.6-108.25 30.64-85.79 13.79-100.09 14.3-39.83 3.06-61.78-.51-31.66 4.08-46-10.22-21.45-7.15-25.53-34.21 5.1-71 5.61-99.57 2-95 3.58-108.26 5.63-52.6 5.63-52.6" fill="#24395b"/>
        <path d="M334 738.34c1 18.38 8.68 46 16.85 52.6s20.93 40.85 24 44.42 4.59 15.83 8.68 22 4.6 7.15 8.68 8.68 1.53.51 3.06 6.64 3.07 3.57 7.66 9.7 8.17 7.15 9.2 16.85 1.53 17.36 3.57 19.41 10.21 11.74 24.51 9.19 22-.51 17.87-16.85-19.91-76.09-26-88.85-14.81-31.15-26-47.49-16.85-23.49-28.6-33.71-18.89-17.87-23-20.42S334 738.34 334 738.34" fill="#283d68"/>
        <path d="M756.26 917.57c2-13.78 2-31.14 9.19-44.42s15.83-23.49 17.36-29.11 0-10.21-2.55-11.74-1-7.15-19.41-4.6-57.19 8.68-71 14.81-25.53 12.26-47 12.77-28.08 2-40.85 1-35.23-4.09-39.32-3.07-17.87 1.54-26.55 13.79-6.64 16.34-14.81 25S502 912 502 912s10.72 6.64 16.34 6.64h27.06c9.7 0 23 2 30.64-2.56s12.77-7.66 24-10.21 14.81-6.13 33.19-9.7 11.75-3.58 32.17-5.11 29.62.51 41.36 1.53 20.94 26.56 20.43 33.19 10.21 6.64 13.79 4.6 15.28-12.81 15.28-12.81" fill="#283d68"/>
        <path d="M178.84 660.41c1-3 19.43-28.35 57.84-16s70.38 34.09 78.38 40.09 22.75 23.35 28.34 32.93 12.2 15.88 21.2 29.88a38 38 0 0 1 5.24 28.13s5 90 5 97-7 63-9 71-13.35 52.15-14.68 58.08-2.32 9.92-3.32 12.92-6 0-4 9 7.75 1.72 2.37 14.36-9.37 14.64-12.37 21.64-3 10-3 10-117.12-32.29-156.56-22.64-42.49 10.89-42.49 10.89 2.7-72.5 2.37-81.37-5.32-43.88-4.32-64.88-.1-52.79 1.45-64.89 6.37-27.19 10.46-30.15a92 92 0 0 0 8.38-7.1s25.79-122.3 26.75-126.09 1-9.48 2-13.64a25 25 0 0 0-.04-9.16" fill="#314689"/>
        <path d="M492.84 1032.41c8-2 21-7 28-13s27-35 40-42 53-38 69-42 39-13 55-16 30-4 38-3 13.21-33.88 18.61-42.94 2.39-17.06 12.39-25.06 15.77-18.22 26.89-18.11 46.11 1.11 58.11 3.11 20 0 34 9 10 14 10 14-86.31 39.78-89.31 54.78 20.36 67 29.36 74 22 30.18 33 36.68 27 25.5 35 25.5 15-2 19-6 1 28-13 32-30 20.83-41 24.42-30 18.58-39 23.58-22 19-40 25-44 21-68 23-49 7-58 8-18 5-31 8-16 6-26 6h-18.4s-81.65-97.87-82.65-110.43-17-22.57-12-32.57a55.9 55.9 0 0 1 12-15.96" fill="#314689"/>
        <path d="M127.15 1114.68c-2.3 2.81-5.36 4.85-2 7.92s4.59 4.08 10 6.89 8.43 2.81 9.2 7.15-2.56 3.32 3.83 9.7 5.87 7.92 8.93 13.79-2.3 4.34 5.87 6.64 4.85 1.53 12.26 3.83a73 73 0 0 0 16.59 2.55s1-40.6-2.55-51.32-3.83-14.3-7.4-18.89-4.85-5.62-10.22-7.15-10.72-3.83-15.31-2.56-5.88.26-10 5.62-4.34 8.68-8.17 10.72-11.03 5.11-11.03 5.11" fill="#726f72"/>
        <path d="M174.28 1099.48c.56 4.93 18.56 79.93 18.56 83.93s7.22 29.78 8.22 33.78 57.88-34.42 75.88-30.42 21.29 13.08 22.29 16.08 24.34 8.51 24.34 8.51 3.65-37.41 4.26-45.45c.68-9 5.38-50.14 2.38-55.14s-14.76-2.36-20.76-5.11-4.74-3.36-20.09-6.47-47.72-4.81-61.62-4.42-53.46 4.71-53.46 4.71" fill="#f6ac7c"/>
        <path d="M125.87 1123.36c7-2 7 1.05 8-3.95l1-5s-1.49 4 5.76 0 2.45 4.68 8.85-6.16 12-8.51 27.39-8.84c42-.9 71 0 80 0s29 3 36 5 12 9 18 9 4 10 9 13 3 0 5 8 2 8 3 17-.18 13.48-.18 13.48 9.18-10.48 10.18-22.48-3-5 5-21 10-32 7-41-11-11-16-15-28-29-43-30-64.36-15.68-81.68-13.84-37.32 5.84-46.32 8.84-16 10-20 10-10 3.26-10 3.26-1 15.74-2 22.74 5 7 0 17-5 7.6-6 16.8-2.91 11.25-2.16 16.77 3.16 6.38 3.16 6.38" fill="#979095"/>
        <path d="M443.84 1072.41c2 4 2.13 23.12 7.56 26.56s8.44 8.44 12.44 14.44 15.64 33.56 23.82 39.78 9.18 6.22 14.18 14.22 8 14 14 19 5 3 9 8-1 7 8 7 21-3 26-5 5-5 13-5 12 8 8-6-28-59-37-66-28-31-35-41-13-15-18-23-7-10-6-14 7-6 9-9 3-7 0-9-14.91-2-18.46 0-1.54 5-4.54 9-2 9-7 12-8.3 3.92-14.65 7.46-8.35 4.54-8.35 9.54 4 11 4 11" fill="#979095"/>
        <path d="M772.84 863.41c3 0 5 0 6-4s1-6 5-6 4 3 6-2-6-5 2-5 6.77 5 10.88 0 2.12-8 9.12-5 2 7 9 3 5.92-6.39 9.46-4.19.54 4.19 6.54 2.19 9-2 13 0 2 4 12 3 6 0 13 3 4.45 3 8.22 3 8.29-5 9.54 0-4.76 4 1.24 7 16 12 21 18 19 32 23 43 7 22 5 32 0 14 4 16 7 6 9 9 3 2 2 6-1.21 8.41.39 9.21 6.61 1.79 2.61 5.79-5 10-10 6 1-4-5-4-12-1-9 2 7 1 5 5-1 6-5 4-2-5-4-2 1-1-2 3a9.64 9.64 0 0 1-8 4c-1 0-2-5-8 6s-9 13-3 13 6-5 7 2 0 1 4 8 1 10 1 14-4 9-6 3 3-11-5-11-7 1-9 4 2 6-8 7-15 5-18 1-8-2-2-7 13-7 5-12-7.79-9.28-11.39-5.64-5.61 9.64-9.61 3.64-1-8-5-6-3.32 6.72-6.16 2.36 2.16-10.36-4.84-4.36 1 5-12 6-7 1-15 2-3 2-8-1-1 3-5-3-9 1-4-8-3-9 5-11 13-10 10-11-1 9-3-1 0-8-2-12-2-1-1-6 0 1-3-5-1 0-2-8-1-3-4-10-1-3-3-9 0-3-4-7-4 1-4-6 1 0-2-9-3 0-3-9 10-6 0-9-15-1-14-7 3-1 4-9-4.25-8.53-4.13-11.26-5.13-.52 0-6.13 10.39-5.49 4.76-9.55-11.39-5.25-7-8.15 5.37-1.91 5.37-1.91" fill="#cdced2"/>
        <path d="M802.84 1093.41c4-4 8-4 5-7s-4-.53-2-5.26-.92-.25 3-7.49 6-9.25 11-7.25 2 1 9 2 8 3 14 1 1.13-.46 8.56-3.73 10.44-4.27 10.44-4.27-6 2-4 5 8-2 2 3-1.21 10-.61 8-6.39-1 .61-2 6.2.75 2.6 4.38-2.6 3.62-9.6 5.62-3-3-10 3-4 5-12 10-1 5-11 7-9 5-8-1 15-8 1-6-14 3-13-1 3-4 3-4" fill="#cdced2"/>
        <path d="M180.84 672.41c4-6 0-10 7-10s-1 5 7 0 2-3 9-3 2 8 7 0-2-9 5-8 2.7 1.36 9.35-.32 3.82-.32 11.24 0 .41.32 7.41.32 11-5 7 0-16 1-4 5 12.3 4.78 16.65 4.39-4.65-7.39 4.35-.39 10-2 9 7-13 9-1 9 6-6 12 0 1 6 6 9-4 3 8 3 10-2 13 3 2 5 9 11 10 9 13 9 1-1 3 8-3 8.54 3 11.27 13.43 2.54 13.21 6.64-4.77 4.31 0 9.7 5.77 3.39 4.77 8.39-9.56 6.92-4.78 8.46-3.22.54 4.78 1.54 5 7 12 3 9 6 7-4-1.11-4.57-3-12.28.52-5.63 3.79-8.17 2.79-4.89 1.52-7.22.63-8-5.31-9.16-5.85 6-7.9-2.6-3.47-3.44-1.26-11.5 5.38-12.68 2.3-15.87-6.24-3.43-5.16-9.31 9.07 1.11 1.07-5.89-10.56-5-9.78-13.52 9.22-4 0-11.23-13.22 2.75-9.22-7.25 9-13 3-14-7.08 5.41-8.54-3.29 11.54-7.71-1.46-8.71-6 7-13-1-2-7-7-8-1.81-2.29-6.4-4.64 1.5-4-7.05-3.17-7 4.75-12.77-.22.44-4.18-11.67-6.07-4.48-1.31-14.8-2.1-14.31-.8-14.31-.8 5.66-4-4.67 0-1.33 1-10.33 4-5.36 1.35-11.68 3.68-7.32 2.32-10.32 4.32 5 3-3 5-4-5-8 2 1.62.38-5.69 9.19-2.31 5.81-7.31 8.81-2-6-5 3-5 4-9 12-3 5-2 9 3 3 1 6-4.79 3.54-1.89 5.27-1.11 4.73 2.89 3.73 2.97-2 2.97-2" fill="#cdced2"/>
        <path d="M769.84 866.41s36-18 67-17 54.57 9 65.29 17 32.14 27.51 36.42 37.76 18.29 51.24 5.29 80.24-28.49 49.72-35.24 53.36-17.76 9.64-17.76 9.64-84-62-101-114-20-67-20-67" fill="#f3b19b"/>
        <path d="M181.84 653.41c2-4 28-38 50-45s30-12 52-4 37 16 47 28 18 32 24 49 8.85 36.84 9.93 40.42-2.93-.42-6.93 3.58-4 2-13-8-24.51-32-40.75-40-36.25-27-50.25-29-36-9-51-2a137 137 0 0 0-24 14Z" fill="#f3b19b"/>
        <path d="M778.84 906.41c6 4 38 19 48 25s20 17 35 25 28 24 37 29 14 11 20 17 8 9 9 12 6 2 7-2-4-5 0-7.52 10-1.48 5-5.48 5 7-10-6-52-39-58-42-10.4-6.87-6.7-6.43 49.7 33.43 55.7 37.43 15 15 18 14 4.8 3.05 2.9-5.47 1.1-9.53-3.9-12.53-4 4-8-5 2-7-6-9-5.6 1.75-9.8-3.12-10.2-8.88-22.2-12.88-29-20-34-22-5-1-15-9-11-3.49-18-13.24 1-12.76-9-12.76-8 4-19-6-10-8-15-14-13-10-9-3a102.2 102.2 0 0 0 13 17c2 2 3 8 2 9s-4 2-8 1-7-9-6-1 5 12 5 12" fill="#cdced2"/>
        <path d="M153.45 657.4c4.85 4.34 12.25 8.94 15.83 12.51s7.66 5.62 9.19 7.66a14.55 14.55 0 0 1 2.81 10c-.26 4.85-.77 10.73-1.79 13.28s-2.3 5.62-2.3 5.62-12-12.77-14-14.3-8.43-7.41-10.47-8.94-2.81-9.7-2.81-12.76 3.54-13.07 3.54-13.07" fill="#3f3232"/>
        <path d="M128.17 813.91c5.11-.51 10.47-.51 13.53-.51s7.92-2.29 12.26 3.58 23.74 49.28 56.93 73.79 66.56 50.12 100.26 50.46c14.06.15 9.53-9.62 8.17-13.27-1.83-4.9-58-38.13-59.58-39.15s63.66 39.83 81.62 38.72c2.91-.18 12-7.15 11-15.57s-63.57-40.26-67.4-42.56 56.47 30.1 61.27 31.66c13.62 4.43 16.34-14.38 14.3-20s-59.57-53.19-59.57-53.19 43.57 49.7 50.38 41.53c6.62-7.94 3.91-18.55 3.74-30.8-.17-12.94-14.46-23-22.8-32.51 15 26.89 18.21 23.08 28.25 25.53 12.6 3.06 15.06-13.62 15.06-13.62s-9.19-9.19-15.57-11.23-14.3-16.86-29.62-28.86-39.32-31.4-61.27-35-57.45-11.24-62.05-15.07-53.87-49.27-68.51-51.49c-11.92-1.8-54.17 1.58-74.72 16.26-9.51 6.79-22 19-25.4 33.57-1.71 7.21 2.42 31.79 6.25 37.41s13.28 25 20.43 29.87 29.61 15.83 39.06 17.87 23.98 2.58 23.98 2.58" fill="#f6ac7c"/>
        <path d="M482.84 821.41c-33 36-51 55-56 66s-7 16-10 19-15 21-15 27-13 53-12 65 13 19 17 2 14.27-63.26 14.27-63.26-11.77 77.31-12.27 80.26c-1.69 10.12 2.56 27.82 17 8 13-30 15-46 18-52s13.52-32.58 13.52-35.58-10.52 66.58-11.52 69.58c-.65 2-2.72 9.28-4.08 14.13a13.74 13.74 0 0 0 1.14 10.46c2.68 4.75 7.62 8.78 14.94-3.55 12.1-25 18-39 19-47s11.35-40.09 12.35-44.09-7.35 44.09-8.35 48.09-5 15.29-6 17c-4.37 7.25 3 27 16 10s18-41 19-44 7-33 14-37 26-35.8 29-40.9 4-30.1 9-32.1 70 1.13 74.93 1c14.24-.52 66.17-18.42 68.17-20.42s-20.1-29.53-32.1-30.53-25-8-41-16-39-28-72-20c-2.9.62-44 12.91-77 48.91" fill="#f6ac7c"/>
        <path d="M610.34 298.17c-2.2 2-.71 18.14 4 18.19s26.93 4.88 25.84 13.47 1.4 39.06-20.08 67.74c-6.31 8.43-42.86 39.75-99.75 36.63-17.88-1-59.79-22.16-64.25-53.79-1.95-13.79-7.07-42.68-10.54-46.84s-4.24-7.06-4.24-7.06 58.78 34.59 66.78 32.25 47.9-11.56 53.35-14.63 48.89-45.96 48.89-45.96" fill="#e5ad95"/>
        <path d="M403.63 205.48c-3.79 1.93-9.79 15.83-6.79 21.88s10 25 11 29.05 1 11 5 15a44 44 0 0 0 8.1 6.37s3.9-2.37 4.9-9.37-1-32-6-43-16.21-19.93-16.21-19.93" fill="#e5ae93"/>
        <path d="M616.36 253.22c6.48-.81 15.48-3.81 16.48-7.81s5.17-22.65 5.09-31.32S639 185 636 181s-3.55-5.52-8.86-6-12.79-1.6-12.79-1.6-6.51 28.29-4.51 37.68 6.52 42.14 6.52 42.14" fill="#e5ae93"/>
        <path d="M391.49 81.83c5.5-10.73 16.05-29.18 20.42-32.68 5-4 35.4-21.2 44.26-22.47 9.53-1.36 21.55-3.4 26.55-3.4s14.66-1.68 23.66-.68 14.69 4.26 19.58 4.59 7.14-.14 17 1.19 15.45.75 21.45 3.75 10.45 5.06 16.17 10.38c7.56 7.05 10.93 6.52 15.83 9.87 6.08 4.16 14.8 9.19 17.87 27.07.8 4.68 8.27 12.84 8.32 21.65s4 43.8 5 47.8 4.83 20.6 5.1 24.67-.62 6 2.29 19.15 5.9 24.62 6.9 29.62 6.64 22.89 6.64 30.89-.28 10.43-1.28 20.43 6.66 15 7.66 22 4.69 9.35 2.69 15.32-3 13-2 14-8.33-24.26-7.33-28.26-1.06-7.75-3.06-11.75 1.12 3-.77 7.66-1.07 6.8 2 11.58 4.5 11.72 4.5 11.72-8-8-10.21-15-3.93-7.72-3.05-16.86.07-10.85.07-20.85 3-5.22-.07-16.25-.13 2-4.13-16-6.9-28.89-11.76-40.35-7.22-13.8-7.73-17.72-13.37-40.91-16.78-48.15c-3.95-8.42-54.73-37.78-55.73-37.78s-20-2-32-2-25-3-38 1-15.55 3.51-33.22 13.22-25.22 10.63-30.44 24.17-10.21 20.84-11.21 25.19-2 12.06 0 17.71a101 101 0 0 1 4 14c1 4.69 3 8.69 3 12.69s2.45 9.14-.78 12.07.87 7.93-.68 16.43 5.46 12.59 2.46 18 1.51 19.93-1.88 32.93-9.41 8.43-7.41 20.43-2.8 27.84-.32 35.21-5.69-1.22-6-11.17-3.65-14.52-3-21.23.1-7.72-2.89.25c-2.46 6.56 1.54 10.4 1.54 18.72s-.77 11.17 2.62 14.74-6.66-4.53-8.14-12.48-9.69-26.68-3.68-36c8.46-13.18 1.2-4.91 5.2-16.91s2-3 5-20 9-24.86 8-38.93-1-8.07-2-21.07 0-9-1-19-4-9-1-20 4-21 2-33c-1.11-6.4-3.81-23.13-.23-30.11" fill="#aa765b"/>
        <path d="M490.22 355.41c11 5 39.35 5.18 55.18-1.41s46.86-28.87 54.86-39.87 11-4.72 15-43.72 4-75.59 0-94.79-12.74-46.52-18.87-51.36-38.13-34.85-74.13-34.85-63 4-80 14-36 26.64-41 37.82a186 186 0 0 0-7.39 18.77s8 44.45 7.35 50.41c-2 18 19.16 72.62 26.69 93.5 2.81 7.79 8.31 26.5 27.31 35.5s35 16 35 16" fill="#f4bb9a"/>
        <path d="M394 161.32c.94-5.87 23.8-38.91 31.8-43.91s23-16 37-19 39-8 54-7 55 16 64 22 30 21 35 30 17.1 34 17.1 34 5.9-19 4.9-27-4-24-7-33-14-24-16-32-5-17-13-23-45-24-62-26-95.48-13-130 29c-24.65 30-21.93 41.61-21.93 41.61l1.62 23.83Z" fill="#f7f9fe"/>
        <g>
            <path d="M462.79 35.86c-3.9 3.74-9 6.42-11.47 11.47a10.87 10.87 0 0 0-1 7.25 11.08 11.08 0 0 0 4.14 6c4.23 3.32 9.91 3.83 14.16 7.06 1.82 1.39 3.5 3.61 3.45 6S470 78 467.86 79c-2.85 1.43-6.29 2.13-9.38 2.88-.56.14-1.41.43-2 .1-.73-.46 0-1.18.43-1.63a4 4 0 0 1 .54-.48 7 7 0 0 1 .69-.26c.58-.78-.82-.51-1.16-.55-1.92-.21-1.9 2.8 0 3a3.86 3.86 0 0 0 3.58-1.06 2.66 2.66 0 0 0-.8-3.93c-2.72-1.68-6.53 1.64-6.58 4.45a3.43 3.43 0 0 0 2.14 3.19c1.72.78 3.56.18 5.28-.28 3.4-.93 7.21-1.61 10.18-3.65 2.49-1.72 4.42-4.4 4.28-7.55a11 11 0 0 0-4.48-7.89c-2.68-2.11-6-3.14-9.11-4.38-2.9-1.14-6-2.71-7.61-5.53-1.83-3.26-.21-7.07 2.06-9.65 2.63-3 6.13-5.08 9-7.83 1.4-1.34-.73-3.46-2.12-2.12Z"/>
            <path d="M467.26 84.06c5.54-.82 10.34-4.49 15.31-6.84a80.6 80.6 0 0 0 14.35-8.94c4.14-3.17 7.79-7 9.52-12 1.67-4.81 1.74-11.42-1.43-15.67a25.3 25.3 0 0 0-3.15-3.06c-1.05-1-1.75-2.33-2.88-3.26-2.24-1.86-5.28-2-8.06-1.91-1.93 0-1.94 3 0 3 2.12 0 4.72-.16 6.37 1.41.82.78 1.38 1.79 2.16 2.6s1.85 1.54 2.67 2.42c1.63 1.72 2.21 4.34 2.36 6.64a17.8 17.8 0 0 1-1 7.23c-1.57 4.38-5.05 7.76-8.71 10.48a79.4 79.4 0 0 1-12.86 8.06c-2.57 1.23-5.07 2.51-7.56 3.89a23.7 23.7 0 0 1-7.89 3c-1.9.28-1.1 3.17.8 2.89Z"/>
            <path d="M468.83 45.12a9.1 9.1 0 0 0 .1-2.61c-.05-.56-.3-1.51.07-2 .77-1 3.2.35 4.05.62a5.15 5.15 0 0 0 4.85-.68c.65-.49 1.17-1.1 1.79-1.63s1.19-.89 1.75-.14A5.6 5.6 0 0 0 485 41c1.51.26 3 .09 4.55.32l.33.06q.66.23-.27-.78c-.17.11-.27.9-.27 1.07a2.76 2.76 0 0 0 1.08 2.12 3.48 3.48 0 0 0 2.15.74 12 12 0 0 0 1.32-.14 6 6 0 0 1 .73-.06c.29.15.36.14.22 0l.69-1.7c-.86.54-1.74 1-2.64 1.51a1.52 1.52 0 0 0 .76 2.8 6.6 6.6 0 0 1 3.08.53c.49.28 1.17 1 .86 1.59-.85 1.72 1.74 3.25 2.59 1.51a4.2 4.2 0 0 0-.83-4.85c-1.49-1.52-3.69-1.71-5.7-1.78l.75 2.79c.9-.47 1.78-1 2.65-1.51a1.53 1.53 0 0 0 .69-1.69c-.83-2.21-2.72-2.12-4.71-2a1.3 1.3 0 0 1-.75-.05c.05.48.13.48.25 0a1.66 1.66 0 0 0 .11-1.12 2.36 2.36 0 0 0-1.64-1.81c-1.66-.53-3.46-.19-5.15-.46a2.65 2.65 0 0 1-2-1.25 3.58 3.58 0 0 0-2.15-1.58c-2.09-.47-3.66 1-5.05 2.33a2.25 2.25 0 0 1-2.37.75c-1-.23-1.95-.77-3-1a4.4 4.4 0 0 0-4.66 1.35c-1.31 1.78-.29 3.67-.68 5.61s2.51 2.69 2.89.8Z"/>
            <path d="M492.13 45.92 489 48l-1.52 1-.42.27c-.06-.11.61.19.31-.09a3.6 3.6 0 0 0-1-.41 7.86 7.86 0 0 0-6.62.41 5.66 5.66 0 0 0-2.75 5.23 2.49 2.49 0 0 0 2.3 2.59 5.5 5.5 0 0 0 3.13-1c.93-.55 1.84-1 2.82-1.49a4.87 4.87 0 0 0 2.47-2.24 1.56 1.56 0 0 0-.54-2.05 1.52 1.52 0 0 0-2.06.54c-.31.7-1 1-1.75 1.32-.93.43-1.77.94-2.65 1.45a7.5 7.5 0 0 1-1.1.45c-.44 0-.33.12.35.49q0-.28-.06-.18v-.58a2.87 2.87 0 0 1 1-1.7 3.9 3.9 0 0 1 2.69-.69 6.4 6.4 0 0 1 1.51.3c.54.16 1.06.47 1.61.59 1.39.32 2.54-.78 3.61-1.5l3.28-2.2a1.53 1.53 0 0 0 .53-2 1.51 1.51 0 0 0-2.05-.54Z"/>
            <path d="M485.52 54a18 18 0 0 0-.33 5.37c.19 1.74.52 3.2-.27 4.84-1.18 2.47-2.65 5.35-5.12 6.74l2.26 1.3.12-4.21c0-.79 0-1.93.62-2.51a6.2 6.2 0 0 1 2.35-.86 5 5 0 0 0 2.45-1.51 1.5 1.5 0 0 0-2.12-2.12 21.6 21.6 0 0 0-5.17 6.67c-.86 1.72 1.72 3.24 2.59 1.52a19.3 19.3 0 0 1 4.7-6.07l-2.12-2.12a4.47 4.47 0 0 1-2.48 1.14 5.28 5.28 0 0 0-2.81 1.8 6.5 6.5 0 0 0-1 3.54c-.09 1.58-.09 3.17-.14 4.76a1.51 1.51 0 0 0 2.26 1.29c2.87-1.62 4.61-4.67 6.05-7.53a8.78 8.78 0 0 0 1-5.48 16.7 16.7 0 0 1 .07-5.73c.39-1.89-2.5-2.69-2.9-.8Z"/>
            <path d="M487.74 55.28a58 58 0 0 1 9.28-1 1.5 1.5 0 0 0 0-3 63 63 0 0 0-10.08 1.07 1.51 1.51 0 0 0-1.05 1.85 1.54 1.54 0 0 0 1.85 1Z"/>
            <path d="M487.72 63.22c-.37.05.14 0 .22 0h1.43a13.5 13.5 0 0 0 1.8 0 5.5 5.5 0 0 0 3.54-1.37 4.18 4.18 0 0 0 1.2-3.4 4.8 4.8 0 0 0-1.91-3.34 5.57 5.57 0 0 0-3.75-1 1.54 1.54 0 0 0-1.5 1.5 1.5 1.5 0 0 0 1.5 1.5 4 4 0 0 1 .62 0h.29-.16a1 1 0 0 0 .19 0 4 4 0 0 1 .61.17c.32.12-.19-.1 0 0l.29.16.24.15-.12-.09s.11.09.15.13l.2.2.09.11c.13.13-.15-.24-.06-.08s.12.18.17.27l.06.12c.08.14-.06-.14-.06-.14a1.6 1.6 0 0 0 .09.26c0 .11 0 .25.08.36s0-.34 0-.17v.13a1.7 1.7 0 0 1 0 .32.7.7 0 0 0 0 .14s.06-.33 0-.17a3 3 0 0 0-.07.31c0 .06-.14.39-.05.16s0 0-.07.1-.2.3-.06.11a1 1 0 0 1-.14.13 1 1 0 0 0-.11.1s.24-.16.11-.09l-.29.17-.13.06c-.14.08.13 0 .13 0a2 2 0 0 0-.32.1c-.21.06-.43.08-.64.14h.15-.54c-.59 0-1.17 0-1.75-.06a11.4 11.4 0 0 0-2.19.11 1.5 1.5 0 0 0-.9.69 1.52 1.52 0 0 0-.15 1.16 1.55 1.55 0 0 0 1.84 1Z"/>
            <path d="M480.57 55.92V56c0 .1 0 .21-.07.31s-.06.2-.1.3v.08a3 3 0 0 1-.5.75 4.84 4.84 0 0 1-1.9 1.3 14.6 14.6 0 0 1-2.32.66c-.48.11-.95.21-1.43.29s.13 0-.31 0h-.46a.9.9 0 0 1-.41-.14c.21.11 0 0-.11-.11.24.26-.18-.38 0 0 0-.09-.1-.58-.09-.27 0-.09.06-.45 0-.15a2 2 0 0 1 .07-.26q-.09.23 0 0c.1-.14.09-.14 0 0a1.5 1.5 0 0 1 .18-.18c0-.05.34-.27.09-.09.55-.39 1.17-.66 1.75-1a5.8 5.8 0 0 0 1.84-1.63 1.51 1.51 0 0 0-.54-2.05 1.53 1.53 0 0 0-2.05.53c.16-.22-.09.08-.15.14a1 1 0 0 1-.15.13c.21-.17 0 0 0 0-.27.17-.53.33-.81.48a11.5 11.5 0 0 0-1.86 1.15 3.66 3.66 0 0 0-.91 4.6c1 1.85 3.06 2 4.93 1.69a15.1 15.1 0 0 0 5.19-1.68 6.45 6.45 0 0 0 3.21-4.95 1.5 1.5 0 0 0-3 0Z"/>
            <path d="M466.19 43.33c-.75.45-1.83.24-2.67.37a3.53 3.53 0 0 0-2.63 1.66 2.73 2.73 0 0 0 .36 3.23 2.7 2.7 0 0 0 .5.51c.13.15.16.18.09.08v-.08c.05.18.05.19 0 0 .93-.61 1.1-.92.52-.94a3 3 0 0 0-.8 0c-1.95 0-5.39 1-4.35 3.67a3 3 0 0 0 2.29 1.68c.49.11 1 .16 1.5.23l.81.11.41.06c.26.08.24.06-.06 0l-.39-.67c-.07-.18.29-.49.05-.42a1.6 1.6 0 0 0-.28.24 3 3 0 0 0-.66.77 2.55 2.55 0 0 0-.18 2.06 3.38 3.38 0 0 0 3.57 2.11c.66 0 1.31-.21 2-.21s.7.28 1.18.61a4.9 4.9 0 0 0 4.13.6c1.84-.57 1.05-3.46-.8-2.9-1 .31-1.53-.15-2.33-.69a4.92 4.92 0 0 0-3.63-.47 5.5 5.5 0 0 1-1.13.06.14.14 0 0 1-.16-.14c0 .06.08.06.05.15l-.09.31h.05c.42-.13.86-.84 1-1.19a2.09 2.09 0 0 0-.27-2.33c-.85-.93-2.35-.87-3.52-1-.23 0-.47-.07-.7-.13a1.4 1.4 0 0 1-.21-.07c0 .05.12.41.12.41.05.35 0 .3-.12.57a.16.16 0 1 0 .09-.06c-.14 0 .19-.06.22-.07a4.6 4.6 0 0 1 1.52-.19 3.6 3.6 0 0 0 2.15-.21 2.36 2.36 0 0 0 .61-3.26 4 4 0 0 0-.63-.75c-.07-.07-.16-.22-.25-.25-.25-.09.05 0-.05 0a.7.7 0 0 1 0 .14c.06.11-.22 0 0 0a2.5 2.5 0 0 1 .4-.17 10 10 0 0 1 1.57-.1 5 5 0 0 0 2.22-.64c1.65-1 .14-3.59-1.51-2.59Z"/>
            <path d="M473.5 53a8.7 8.7 0 0 1-2.06-1.55c-.34-.35-1.26-1.24-1.22-1.71l-.2.76.1-.19-.54.54q-.27 0 0 0h.42a9 9 0 0 1 .9.18 7.5 7.5 0 0 0 1.63.18 3.59 3.59 0 0 0 2.93-1.41 8 8 0 0 0 .85-2.32.9.9 0 0 1 .15-.36c-.19.29-.28.07 0 .29a7 7 0 0 0 1.26.57 3.43 3.43 0 0 0 3.06 0c.76-.41 1.17-1.12 1.83-1.64.22-.18.07-.07.12 0a1.7 1.7 0 0 1 .25.22 3.8 3.8 0 0 1 .68 1.08 5.45 5.45 0 0 0 2.1 2.36c1.7.9 3.22-1.69 1.51-2.6-.86-.45-1.13-1.67-1.69-2.43a3.69 3.69 0 0 0-3.05-1.7 4 4 0 0 0-2.68 1.58c-.2.22-.36.47-.65.48s-1-.43-1.35-.59a3.16 3.16 0 0 0-3.61.33 6 6 0 0 0-1.15 2.73c-.11.32 0 .3-.43.38a4.3 4.3 0 0 1-1.6-.19c-1.3-.24-2.91-.38-3.63 1s.41 2.82 1.23 3.84a11.3 11.3 0 0 0 3.34 2.78c1.69.93 3.2-1.66 1.51-2.59Z"/>
            <path d="M455.07 62.83a2 2 0 0 1 .17.27q-.08-.16 0 .09v.16a1.47 1.47 0 0 1-.36.86 13 13 0 0 1-1.83 1.84c-.73.71-1.42 1.46-2.08 2.24a6.3 6.3 0 0 0-1.6 2.73 2.83 2.83 0 0 0 1.27 3.06 5.2 5.2 0 0 0 3 .6 10.27 10.27 0 0 0 5.66-2.5 1.51 1.51 0 0 0 0-2.12 1.53 1.53 0 0 0-2.12 0 6.73 6.73 0 0 1-4 1.64h-.33a3.3 3.3 0 0 0-.58-.14c-.28 0 .17 0 0 .09s0 .1 0 0 0-.1 0 0c0 .29.11-.3.08-.22a4 4 0 0 1 .26-.43 9 9 0 0 1 .66-.82c.6-.7 1.22-1.37 1.88-2s1.21-1.08 1.74-1.7c1.19-1.41 1.87-3.48.75-5.15a1.54 1.54 0 0 0-2.06-.54 1.52 1.52 0 0 0-.54 2Z"/>
            <path d="M458.38 65.45a23 23 0 0 0 4.31-.23 1.5 1.5 0 0 0 1.05-1.85 1.5 1.5 0 0 0-.69-.89l-.36-.16a1.5 1.5 0 0 0-.79 0h-.16l.4-.06a20.5 20.5 0 0 1-3.76.16 1.5 1.5 0 0 0 0 3Z"/>
            <path d="M425 79a80 80 0 0 1 9-10.49c1.46-1.44 3.07-3.32 5-4.17a4.23 4.23 0 0 1 5 1.65c2.77 3.75.35 8.64-.09 12.69s1.09 7.67 4.85 9.32a21.3 21.3 0 0 0 6.06 1.32l8.46.91-.76-2.8a50.8 50.8 0 0 1-19.95 8.41 48.5 48.5 0 0 1-10.76.79c-1.63 0-3.7 0-5.06-1s-1.88-2.81-2.29-4.33a20.2 20.2 0 0 1 .88-12.84c.72-1.79-2.18-2.57-2.89-.79a23.06 23.06 0 0 0-1.31 12.49c.65 3.8 2.27 8.07 6.42 9.05 3.81.91 8.21.56 12.06.1a53.6 53.6 0 0 0 12.1-2.86A52.8 52.8 0 0 0 464 90a1.51 1.51 0 0 0-.75-2.79l-7.52-.81a18.9 18.9 0 0 1-6-1.23c-4.69-2.16-2.63-7.59-1.92-11.44.76-4.17.19-9-3.61-11.5a6.88 6.88 0 0 0-5.74-.95c-2.21.7-3.93 2.47-5.57 4a84 84 0 0 0-10.49 12.2c-1.13 1.57 1.47 3.07 2.59 1.51Z"/>
            <path d="M448.68 88.87a6.6 6.6 0 0 1-3.67-.94 4 4 0 0 0-1.56-.68 6.7 6.7 0 0 0-2.29.4 27.8 27.8 0 0 1-8.24.5 12.2 12.2 0 0 1-3.29-.47 6 6 0 0 1-.92-.51s-.1-.15-.14-.17c0-.24-.13-.22-.29 0h.72a30 30 0 0 1 3.89.44 3.78 3.78 0 0 0 3.52-.76 2.55 2.55 0 0 0 .43-3c-.57-1-1.68-1.39-2.55-2.07a7.6 7.6 0 0 1-1.17-1.16c-.16-.19-.28-.44-.44-.63l-.09-.14c-.16-.44-.34-.26-.54.53a7.8 7.8 0 0 0 1.82 0 3.12 3.12 0 0 0 2-.4 2.66 2.66 0 0 0 .94-2.82c-.1-.43-.62-1-.61-1.47s.65-.62 1-.71a7 7 0 0 0 .95-.14h.12q.66 0-.63-.6a13 13 0 0 0-.06 1.7 25.3 25.3 0 0 0-.76 4.21 2.53 2.53 0 0 0 .6 1.77c.54.59 1.05.49 1.71.72.39.13.28 0 .46.67a17 17 0 0 0 .56 1.85 14.56 14.56 0 0 0 4.88 6.4 1.51 1.51 0 0 0 2.05-.54 1.53 1.53 0 0 0-.53-2 11.58 11.58 0 0 1-4.07-6.46 3.47 3.47 0 0 0-2.17-2.73 2.5 2.5 0 0 0-.65-.11h-.27c-.34 0-.2.14.43.5.08 0 .43-2.4.49-2.65a8.6 8.6 0 0 0 .23-4.06c-.47-1.66-2.05-1.68-3.47-1.47a4.67 4.67 0 0 0-3.21 1.7c-.93 1.24-.72 2.47-.15 3.8l.15.3c.05.4.18.27.4-.37a7.3 7.3 0 0 0-1.17 0 6.2 6.2 0 0 0-2 .1 2.36 2.36 0 0 0-1.42 3.23 8 8 0 0 0 2.33 3.04 13.5 13.5 0 0 0 1.51 1.09c.08 0 .54.4.61.38a.58.58 0 0 0 .13-.52.6.6 0 0 1-.33 0 9.3 9.3 0 0 0-2.18-.34c-.66-.09-1.32-.16-2-.2-1.48-.1-3.19-.16-4 1.38-1.22 2.45 1.14 4.57 3.29 5.18a21.6 21.6 0 0 0 4.81.54A32.6 32.6 0 0 0 439 91c.92-.11 1.83-.25 2.73-.45l.77-.19c.59-.16.58-.09 1.11.22a9.64 9.64 0 0 0 5 1.25c1.93 0 1.94-3 0-3Z"/>
            <path d="m495.06 70 .45-.08c-.29.05.13 0 .19 0h1.99l.45.07a10.3 10.3 0 0 1 1.65.46 8 8 0 0 1 1.4.69c.23.14.46.3.69.45s-.06-.06.17.13l.34.3a3 3 0 0 1 .32.32c-.06-.08-.07-.08 0 0s.05.09 0 0 0-.21 0-.31c-.09.13-.1.16-.05.09s0 0-.08.07c-.31.28.18-.09-.17.13-.12.08-.25.15-.38.22s.12 0-.18.08l-.43.14q-.4.11-.81.18l-.45.07c-.11 0-.1 0 0 0h-.3a1.54 1.54 0 0 0-1.5 1.5c0 .72.67 1.6 1.5 1.5 1.72-.22 3.52-.49 4.82-1.74a2.8 2.8 0 0 0 .81-2.91 5 5 0 0 0-2-2.24 11.72 11.72 0 0 0-9.3-2 1.49 1.49 0 0 0-1 1.84 1.53 1.53 0 0 0 1.84 1Z"/>
            <path d="m501.28 66.79 6 .38a1.5 1.5 0 0 0 1.5-1.5 1.54 1.54 0 0 0-1.5-1.5l-6-.38a1.5 1.5 0 0 0-1.5 1.5 1.53 1.53 0 0 0 1.5 1.5"/>
            <path d="M504.34 62.22h4.26a1.5 1.5 0 0 0 0-3h-4.26a1.5 1.5 0 0 0 0 3"/>
            <path d="M513.52 56.66c2.75-5.22 11-4.23 15.7-2.95a22.82 22.82 0 0 1 14.51 11.6 15.4 15.4 0 0 1 1.49 4.21c.3 1.84-.51 3.25-1.62 4.65a26.3 26.3 0 0 1-7 6.12c-6.14 3.73-13.08 4.08-20.08 4.36q-13 .5-26 .43l.76 2.79c1.64-1.17 3.6-1.43 5.53-1.81a38.4 38.4 0 0 0 6-1.59 19.24 19.24 0 0 0 9.27-6.64 20 20 0 0 0 3.54-10.12 22.6 22.6 0 0 0-.24-5.57c-.34-2.19-1.32-4.41-1-6.65.29-1.89-2.6-2.7-2.89-.8-.59 3.9 1.25 7.62 1.19 11.53a17.6 17.6 0 0 1-3 9.8c-2.15 3.1-5.53 4.93-9.07 6a51 51 0 0 1-5.61 1.34 12.9 12.9 0 0 0-5.26 1.92 1.52 1.52 0 0 0 .76 2.8q13 .06 26-.43c7.87-.31 15.65-.85 22.43-5.29a29.3 29.3 0 0 0 7.59-7.17 7.88 7.88 0 0 0 1.77-5.19 15.8 15.8 0 0 0-1.47-5.15 25.45 25.45 0 0 0-15.56-13.67c-6.2-2-16.68-3-20.33 4-.9 1.7 1.68 3.22 2.59 1.51Z"/>
            <path d="M517.34 72.1a8 8 0 0 1-.94 8 1.52 1.52 0 0 0 1.46 2.51c10-1.57 20.27-6.49 23.65-16.71.49-1.49-1.47-2.41-2.51-1.46a8.6 8.6 0 0 1-1.9 1.32l2.06.53-1.61-3.73c-.57-1.33-2.33-.68-2.74.36.06-.16.17-.2.15-.26a1.8 1.8 0 0 1-.17-.48 3.75 3.75 0 0 1 .59-1.88 1.52 1.52 0 0 0-2.06-2.06 2.83 2.83 0 0 1-3.87-1.33l-2.9.8c0 .09.26 1 .26 1 .78-.33.89-.54.32-.63l-.67-.25-3.34-1.23a1.52 1.52 0 0 0-1.84 1 5.46 5.46 0 0 0 0 3.76l1.84-1.85a6 6 0 0 1-2.68-1 1.52 1.52 0 0 0-2.06.54c-.81 1.91-.46 3.6 0 5.56a17.5 17.5 0 0 1 .28 6.64c-.29 1.89 2.6 2.7 2.89.79a21.5 21.5 0 0 0 .13-6c-.13-.93-.33-1.84-.54-2.76a4.45 4.45 0 0 1-.16-2.67l-2 .54a8.1 8.1 0 0 0 3.41 1.33c1 .15 2.26-.64 1.84-1.84a2.86 2.86 0 0 1 0-2.17l-1.85 1.05 3.57 1.32a3.23 3.23 0 0 0 2.58.15c1.53-.73 1.54-2.63 1-4-.72-1.75-3.59-1-2.9.8a5.87 5.87 0 0 0 8.29 3.12l-2.05-2.05c-.93 1.93-1.67 4.42.15 6.11a2.94 2.94 0 0 0 4.77-1.17l-2.75.36 1.61 3.73a1.51 1.51 0 0 0 2 .54 11.6 11.6 0 0 0 2.5-1.78l-2.51-1.46c-3 9.19-12.72 13.22-21.54 14.6l1.46 2.51a11 11 0 0 0 1.7-10.9 1.56 1.56 0 0 0-1.84-1 1.51 1.51 0 0 0-1 1.85Z"/>
            <path d="m523.65 68.12 1.85 3.4a4.2 4.2 0 0 0 .61.94 2.05 2.05 0 0 0 1.51.66 3.85 3.85 0 0 0 2-.7 9.3 9.3 0 0 0 2.45-2.58 4.35 4.35 0 0 0 .9-1.73 1.73 1.73 0 0 0-.54-1.56 3.3 3.3 0 0 0-1.26-.61c-1.36-.44-2.74-.83-4.12-1.2a1.5 1.5 0 0 0-.8 2.89c1.26.34 2.52.7 3.76 1.09l.48.15.24.08c-.59-.2-.79-.74-.62-1.61-.16.21-.29.47-.43.69s-.3.45-.46.67c0 .06-.09.11-.13.16v-.06l-.23.27a5 5 0 0 1-.52.53l-.15.13c-.13.11-.1.09.07 0 0 .06-.27.19-.33.22l-.34.2c-.15.06-.12.06.08 0l-.21.07a.8.8 0 0 1 .37 0 .87.87 0 0 1 .52.37s-.18-.31-.2-.34l-1.94-3.58a1.51 1.51 0 0 0-2-.53 1.53 1.53 0 0 0-.54 2.05Z"/>
            <path d="M527.3 94.52a5.65 5.65 0 0 0 3.7-2.06c1.11-1.23 2-2.33 3.65-2.72 3.43-.79 7.18.37 10.2 2 6.69 3.51 11.48 9.63 17.8 13.68 1.63 1 3.14-1.55 1.52-2.59-6.56-4.2-11.47-10.63-18.56-14.06A19 19 0 0 0 535 86.65a8.2 8.2 0 0 0-4.55 1.93c-.89.79-1.88 2.79-3.15 2.94-1.89.24-1.92 3.24 0 3"/>
            <path d="M465.15 97.17c4.82.23 8-3.57 11.8-5.76a6.44 6.44 0 0 1 6.14-.55c2 .89 3.86 1.89 6.13 1.36 1.88-.43 1.09-3.33-.79-2.89s-3.85-1.23-5.58-1.76a8.84 8.84 0 0 0-6.32.69c-3.77 1.74-6.9 6.12-11.38 5.91-1.93-.09-1.92 2.91 0 3"/>
            <path d="M537.65 96q.225-.105 0 0l.23-.08.34-.1h.24c-.21 0-.22 0 0 0h.93a4 4 0 0 1 .83.18 9 9 0 0 1 .85.29c.39.15-.27-.13.11 0l.47.22c.54.27 1.06.57 1.58.87l.76-2.79-5.71-.75a1.5 1.5 0 0 0 0 3l5.71.75a1.49 1.49 0 0 0 1.44-1.1 1.54 1.54 0 0 0-.69-1.7 15.6 15.6 0 0 0-4-1.8 6.64 6.64 0 0 0-4.56.41 1.5 1.5 0 0 0-.54 2 1.54 1.54 0 0 0 2 .54Z"/>
            <path d="M527.88 45.62c1.65-1.91 4.1-2.48 6.53-2.5 2 0 4.62 0 6.18 1.35a2.6 2.6 0 0 1 .43.45 1 1 0 0 1 .18.34c.19-.41.22-.55.1-.43h-.35a8 8 0 0 1-1-.21q-2.07-.48-4.17-.81a64 64 0 0 0-8.84-.77c-1.93 0-1.93 3 0 3a58 58 0 0 1 8.34.71c1.45.24 2.87.54 4.3.86a3.89 3.89 0 0 0 3.75-.63c2.19-2.09-.43-4.93-2.46-5.82a16.2 16.2 0 0 0-7.37-1 10.85 10.85 0 0 0-7.78 3.35 1.54 1.54 0 0 0 0 2.12 1.51 1.51 0 0 0 2.12 0Z"/>
            <path d="M539.73 51.61c-.14-.38-.11 0 0 0a3 3 0 0 1 .74-.12 5.8 5.8 0 0 1 1.94.31c1.36.46 2.54 1.38 3.86 1.93a26.8 26.8 0 0 0 8.66 1.48l-1.45-1.9c-.11.38-.84.63-1.17.77a8.3 8.3 0 0 1-1.85.52 12.7 12.7 0 0 1-3.94 0 14 14 0 0 1-3.83-1c-1.16-.57-1.87-1.73-3.05-2.24a1.54 1.54 0 0 0-2 .53 1.53 1.53 0 0 0 .54 2.06 7.2 7.2 0 0 1 1.61 1.3 9.2 9.2 0 0 0 2.4 1.36 19 19 0 0 0 5.1 1.11 13.4 13.4 0 0 0 5.09-.4c1.66-.49 3.5-1.36 4-3.13a1.52 1.52 0 0 0-1.45-1.9 34 34 0 0 1-5.25-.57 17.8 17.8 0 0 1-4.78-2 8.62 8.62 0 0 0-5.35-1.06c-1.78.28-3.44 2-2.72 3.88a1.54 1.54 0 0 0 1.84 1 1.51 1.51 0 0 0 1.05-1.84Z"/>
            <path d="M550.09 63a19 19 0 0 0 4.61.73 18 18 0 0 0 4.08-.68 9.7 9.7 0 0 1 3.88-.5 4.06 4.06 0 0 1 2.65 1.8 1.8 1.8 0 0 1 .34.65c0 .22-.07.35 0 .29s-.18-.1-.31-.15-.51-.26-.75-.38a31 31 0 0 0-12.94-3.37c-1.93-.09-1.93 2.91 0 3a28.4 28.4 0 0 1 7.89 1.47 27.5 27.5 0 0 1 3.67 1.56c1.2.61 2.58 1.2 3.89.5 2.72-1.46 1.31-4.86-.37-6.48-2-1.94-4.6-2.19-7.23-1.65a41 41 0 0 1-4.09.9 13.4 13.4 0 0 1-4.54-.58c-1.88-.47-2.68 2.43-.8 2.89Z"/>
            <path d="M573.27 72.56a52 52 0 0 1-7.5-.76 8.6 8.6 0 0 1-2.89-1.32c-.91-.56-2.14-1.38-3.25-1.06a2.08 2.08 0 0 0-1 3.14A8.8 8.8 0 0 0 561 75a14.3 14.3 0 0 0 6.37 2.57c2.12.34 5.76 1.13 7-1.32a1.5 1.5 0 0 0-2.59-1.52c0 .06-.12.22 0 .09s0 0-.06 0c.23-.05-.4.09-.19.06a6 6 0 0 1-1.52 0 20 20 0 0 1-3.83-.66 10.3 10.3 0 0 1-3-1.39 7 7 0 0 1-1.15-1 7 7 0 0 1-.49-.57 2 2 0 0 0-.16-.25q0-.12 0 0c.18.27.11.58-.23.92l-.66.39c-.44 0-.49 0-.17.07a1 1 0 0 0 .23.12c.22.11.44.24.65.37.47.28.92.58 1.39.85a9.2 9.2 0 0 0 3.22 1.07c2.51.37 5 .6 7.58.74a1.5 1.5 0 0 0 0-3Z"/>
            <path d="M568.19 83.6c2.65.83 5.39 1.58 8.19 1.07a11 11 0 0 1 1.68-.35 2 2 0 0 1 1.29.6 8 8 0 0 1 2.35 2.45l-.2-.76v.18l.21-.76c.41-.3.44-.38.09-.26h-.19a2 2 0 0 1-.55 0 7.6 7.6 0 0 1-1.53-.49c-1-.4-2-.84-3-1.16a23.7 23.7 0 0 0-6.68-1.1c-1.93 0-1.93 3 0 3a21 21 0 0 1 6.38 1.15c2 .72 4 2 6.24 1.55 1.2-.21 2.33-1.12 2-2.47a6.34 6.34 0 0 0-2.05-2.63 10.3 10.3 0 0 0-2.5-1.86 5.22 5.22 0 0 0-3.53-.12c-2.53.61-5-.14-7.38-.89-1.84-.58-2.63 2.32-.79 2.89Z"/>
            <path d="M593 98.92a66 66 0 0 1-7-.45c-1.56-.18-3.41-.4-4.52-1.63a1.5 1.5 0 0 0-2-.12 1.54 1.54 0 0 0-.39 1.94 8.65 8.65 0 0 0 4.83 4.16 12.45 12.45 0 0 0 7.4.12c1.87-.47 1.08-3.36-.8-2.89-3.26.82-7.23.4-8.84-2.91L579.37 99c1.53 1.68 3.78 2.15 5.93 2.43a66 66 0 0 0 7.72.53 1.5 1.5 0 0 0 0-3Z"/>
            <path d="M593 104.49c-2.38 1-4.6-.41-6.9-.93a1.89 1.89 0 0 0-2.32 2.43 6.8 6.8 0 0 0 1.77 2.74c3.7 3.7 9.28 3.23 13.84 1.69a1.53 1.53 0 0 0 1.05-1.84 1.51 1.51 0 0 0-1.84-1c-2.45.82-5.14 1.49-7.7.83a7.3 7.3 0 0 1-2.63-1.22 6.6 6.6 0 0 1-1-1 5 5 0 0 1-.38-.57 2 2 0 0 0-.19-.35c-.16-.2.25-.06-.13.56l-.53.54.11-.07-.76.2h.15c.09 0 .4.12.6.18l1.06.34a17 17 0 0 0 2.14.59 7.8 7.8 0 0 0 4.46-.25 1.56 1.56 0 0 0 1.05-1.85 1.52 1.52 0 0 0-1.85-1Z"/>
            <path d="M551.32 83.85c2.15-.15 3.55 1.73 4.76 3.24l-.38-1.46c.24-.62.25-.18 0-.25 0 0-.47.05-.39.05a10 10 0 0 0-1.07.09 2.91 2.91 0 0 0-2.16 1.35c-1.05 1.87.56 3.59 2 4.59a13.17 13.17 0 0 0 9.57 2.21c3-.49 7.2-2.87 6.23-6.5a3.42 3.42 0 0 0-1.45-2 5.54 5.54 0 0 0-2.81-.56c-1.45 0-2-1.53-2.76-2.55a9.17 9.17 0 0 0-4.63-3.46 3.25 3.25 0 0 0-3 .58 2.66 2.66 0 0 0-.82 1.19c-.06.16-.09.32-.14.48l-.06.3c-.14.4 0 .29.45-.32a1.5 1.5 0 0 0-1 1.84 1.53 1.53 0 0 0 1.84 1 2 2 0 0 0 1.38-1.06 3.7 3.7 0 0 0 .3-.92 1.5 1.5 0 0 0 .07-.29c0-.21 0 0-.1 0 .91-.21 2.23 1.09 2.81 1.68.85.89 1.38 2 2.21 2.94a4.73 4.73 0 0 0 3.51 1.51 6 6 0 0 1 .93 0c.29 0 .33.08.37.16a1 1 0 0 1-.19 1.07 5.45 5.45 0 0 1-2.89 1.7 9.63 9.63 0 0 1-6.92-.9 9.3 9.3 0 0 1-1.69-1.07c-.11-.09-.2-.2-.3-.29s-.06-.38-.2 0-.25.16.14.18a3.47 3.47 0 0 0 3.7-2 1.49 1.49 0 0 0-.43-1.38c-1.72-2.15-3.89-4.33-6.88-4.12-1.91.14-1.93 3.14 0 3Z"/>
            <path d="M436.14 110.44a9.26 9.26 0 0 0-3.12-4.09c-1.45-1.18-2.87-2.27-4.86-1.89a23.7 23.7 0 0 0-5.47 2.12 27.3 27.3 0 0 0-5.18 3.18 17.74 17.74 0 0 0-6.13 8.52c-1.11 3.53-.09 7.67-2 10.94a1.5 1.5 0 0 0 2.59 1.51c1.63-2.85 1.41-6 1.75-9.2a13.32 13.32 0 0 1 3.85-7.84 29.8 29.8 0 0 1 10.55-6.13 2 2 0 0 1 2.16.45 7.77 7.77 0 0 1 2.93 3.22c.65 1.81 3.55 1 2.89-.79Z"/>
            <path d="M406.79 94.85a3.66 3.66 0 0 0-4.13 0c-1.43 1-1.68 2.67-1.61 4.29a11.23 11.23 0 0 1-2.35 7.64 1.51 1.51 0 0 0 1.45 2.51c1.35-.28 2.7-.55 4.05-.84a4.74 4.74 0 0 0 3.29-2.16 13.8 13.8 0 0 0 1.29-3.63c.36-1.37.67-2.74 1-4.12a1.53 1.53 0 0 0-1.05-1.84 1.5 1.5 0 0 0-1.84 1c-.27 1.2-.53 2.39-.83 3.58a17 17 0 0 1-1 3.14 5 5 0 0 1-.3.52 1.4 1.4 0 0 1-.3.25 4.6 4.6 0 0 1-1.38.39l-3.73.78 1.46 2.5a14.3 14.3 0 0 0 3.19-7.69 13 13 0 0 0 0-1.89v-.91a3 3 0 0 1 0-.45 1 1 0 0 1 .05-.21c.11-.39-.08.08.11-.28 0-.07.16-.2.05-.07.12-.11.14-.13.07-.07s0 0 .1 0h.47c-.18 0 .23.1 0 0a2 2 0 0 1 .37.24 1.51 1.51 0 0 0 2.05-.54 1.53 1.53 0 0 0-.54-2.05Z"/>
            <path d="m408.68 114.21.58-.81h-2.35l-2.72-.07c-1.69 0-3.67-.35-5.09.77a3.74 3.74 0 0 0-1.26 2.17 2.6 2.6 0 0 0 0 1.61 2.14 2.14 0 0 0 1.39 1.15 9.4 9.4 0 0 0 2.75.19h2.62a9.2 9.2 0 0 0 3.05-.3c1-.37 2-.86 3-1.3a1.51 1.51 0 0 0 .54-2.06 1.53 1.53 0 0 0-2-.53c-.73.32-1.45.67-2.2 1a6 6 0 0 1-2.24.23H401a5 5 0 0 1-.68 0h-.06c-.26-.08-.23-.06.07.05l.39.66c0 .16-.05.46.05.17 0-.1.06-.21.08-.31a.8.8 0 0 1 .16-.34c-.11.12 0 0 0 0a2 2 0 0 1 .39-.1h.1c1.14-.06 2.3 0 3.44 0l3.6.1a3.9 3.9 0 0 0 2-.29 2.09 2.09 0 0 0 1.1-1.88 1.53 1.53 0 0 0-1.5-1.5 1.51 1.51 0 0 0-1.5 1.5Z"/>
            <path d="M409.79 110.29a9.2 9.2 0 0 0 3.44-2.91 7.74 7.74 0 0 0 1-4.88v-.62c0-.42 0 0 0 0l-.66.68h-.17a1.7 1.7 0 0 1 .5 0h.89c.1 0 .23.07 0 0 .16 0 .32.07.47.13-.07 0-.25-.13 0 0s.17.16 0 0l.17.17c-.13-.13-.07-.12 0 0a2 2 0 0 0 .12.21c.12.17-.08-.23 0 0s.09.27.13.41a10 10 0 0 1 .25 1.1c0 .09.09.57.05.23a4 4 0 0 1 0 .51v.51c0 .17-.08.23 0 0 0 .09-.06.2-.07.29s.12-.19 0 0l-.15.27c.13-.22 0-.08 0 0-.23.26.22-.1-.08.08l-.21.12c-.24.15.12 0-.05 0s-.36.12-.54.16h-.35l-.67.06a11 11 0 0 0-1.72.27 1.52 1.52 0 0 0-1 1.84 1.53 1.53 0 0 0 1.85 1l.36-.08c.06 0 .38-.07.12 0l.66-.07a12 12 0 0 0 1.59-.22 4 4 0 0 0 3.29-4.47 11.8 11.8 0 0 0-.49-2.63 4.1 4.1 0 0 0-1.81-2.42 5.1 5.1 0 0 0-2.88-.5 3.4 3.4 0 0 0-1.57.35 2.23 2.23 0 0 0-1 2v2.68a6 6 0 0 1-.16.61c-.12.36.1-.17 0 0l-.17.32-.15.25c0 .07-.26.36 0 .09-.12.15-.26.3-.4.45s-.32.31-.49.45-.28.23 0 0l-.3.22a12 12 0 0 1-1.17.68 1.51 1.51 0 0 0-.54 2 1.54 1.54 0 0 0 2.06.54Z"/>
            <path d="M407.45 86.47a5.9 5.9 0 0 0-1.65 2.91 3.67 3.67 0 0 0 1.12 3.25 5.22 5.22 0 0 0 6.37.51 5.46 5.46 0 0 0 2.06-2.54 6.6 6.6 0 0 0 .23-3.63c-.33-2-1-4 0-5.82L412.87 80l.12-.2-.23.14c-.1.06-.49.27-.73.44a12 12 0 0 0-1.62 1.47l-3.21 3.34c-1.34 1.39.77 3.51 2.12 2.12 1.17-1.22 2.33-2.44 3.51-3.65a6.6 6.6 0 0 1 1.45-1.13 3.08 3.08 0 0 0 1.48-1.73 1.51 1.51 0 0 0-2.76-1.16 8.63 8.63 0 0 0-.87 5.17c.12 1 .39 2 .54 3a3.5 3.5 0 0 1-.19 1.91 2.4 2.4 0 0 1-2.95 1.16 1.6 1.6 0 0 1-.63-.45s-.2-.38-.18-.26c-.11-.5.44-1.1.83-1.54a1.54 1.54 0 0 0 0-2.12 1.51 1.51 0 0 0-2.12 0Z"/>
            <path d="M417.16 78.7a8 8 0 0 0 1.84-4.93c.06-.8 0-1.61 0-2.41a5.4 5.4 0 0 1 .3-2.24 4 4 0 0 1 .24-.4 2 2 0 0 0 .19-.19 4 4 0 0 1 .39-.23c-.13.06 0 0 .08 0h.07c-.28 0 .31.07.15 0s0 0 .08 0c-.15-.17 0 0 0 0s.17.17.08.06.07.12.09.15a2 2 0 0 1 .11.2c-.07-.14 0 0 0 .06a1.2 1.2 0 0 1 .09.62 3 3 0 0 1-.38 1.13 11.2 11.2 0 0 1-1.42 2 21.6 21.6 0 0 1-4.43 4 1.54 1.54 0 0 0-.54 2.05 1.52 1.52 0 0 0 2.06.54 24.4 24.4 0 0 0 4.91-4.28c1.41-1.63 3-3.66 2.76-6s-2.31-4.27-4.69-3.48-3.16 3.3-3.18 5.6v2.79c0 .12-.05.47 0 .27a7.4 7.4 0 0 1-.34 1.45c-.09.28-.06.15 0 .09-.07.14-.14.29-.22.43s-.11.18-.18.27 0 0-.17.21a1.54 1.54 0 0 0 0 2.12 1.51 1.51 0 0 0 2.12 0Z"/>
            <path d="M422.93 63.55a13.38 13.38 0 0 0 16.58-6.85 1.51 1.51 0 0 0-2.05-2.05c-2.57 1.45-5.53 1.84-8.4 2.3a26 26 0 0 0-4.3.85c-1.72.57-2.81 2.15-2 3.91a1.51 1.51 0 0 0 2 .54 1.53 1.53 0 0 0 .54-2c.56 1.17-.3.46.18.49a4 4 0 0 0 .94-.24c.58-.13 1.15-.24 1.74-.34 1.2-.21 2.42-.39 3.62-.59a21.4 21.4 0 0 0 7.22-2.33l-2.05-2.05a10.78 10.78 0 0 1-5.06 5.22 10.48 10.48 0 0 1-8.13.25 1.5 1.5 0 1 0-.8 2.89Z"/>
            <path d="M435 53.89c1.06.71 2.37.34 3.49 0a6.3 6.3 0 0 0 3-1.78 3.68 3.68 0 0 1 2-1.55 8.4 8.4 0 0 1 3.26.14 1.55 1.55 0 0 0 1.84-1.05 1.51 1.51 0 0 0-1.05-1.85c-2.42-.41-5-.69-7.07 1-.74.6-1.18 1.5-2 1.92a5.7 5.7 0 0 1-1.26.45c-.23.06-.46.13-.69.18h-.12.06c.17 0 .2.06 0-.05a1.5 1.5 0 1 0-1.46 2.59"/>
            <path d="M394.22 127.12c-.32-.45-.87-1.36-.67-1.89l-.39.67.15-.13-.66.39c1-.3 2.43.68 3.09 1.39a4.3 4.3 0 0 1 .86 4 18 18 0 0 1-2.13 4.73 20 20 0 0 1-3 4.24L394 142c1.09-3 2.05-6 1.5-9.23a9.6 9.6 0 0 0-1.7-3.81 6.1 6.1 0 0 1-.78-3.85c0-1.93-3-1.93-3 0a10.1 10.1 0 0 0 .6 4.3c.51 1.19 1.45 2.08 1.8 3.35.8 2.85-.35 5.79-1.31 8.45-.52 1.44 1.51 2.48 2.51 1.46a27.2 27.2 0 0 0 4.57-7c1.21-2.43 2.14-5.31 1.07-8a7.23 7.23 0 0 0-5.28-4.41c-1.29-.24-3-.22-3.41 1.35a5.44 5.44 0 0 0 1 4 1.53 1.53 0 0 0 2.05.53 1.5 1.5 0 0 0 .54-2Z"/>
            <path d="M399.31 133.76a26.7 26.7 0 0 0-2 7.34h3v-.22l.12-.46a3 3 0 0 1 .36-.79c.08-.14.16-.27.25-.4s.15-.2.07-.1.09-.1.09-.1a6 6 0 0 1 .67-.64c.54-.41 1.26-.76 1.85-1.17a12.2 12.2 0 0 0 3.28-3.17 5.3 5.3 0 0 0 1.06-2 2 2 0 0 0-1.54-2.44 5.5 5.5 0 0 0-2.42.2 14 14 0 0 0-2.38 1l-1.12.53a8 8 0 0 1-.94.34 1.54 1.54 0 0 0-1.05 1.85 1.52 1.52 0 0 0 1.85 1 17 17 0 0 0 2.48-1 10 10 0 0 1 2-.84l.46-.11h.39q.33 0 0 0-1.06-.6-.66-1.23c-.08.12-.15.29-.23.41a9.5 9.5 0 0 1-3.1 3.13 19 19 0 0 0-2.22 1.5 7.25 7.25 0 0 0-2.37 4.74 1.51 1.51 0 0 0 1.5 1.5 1.54 1.54 0 0 0 1.5-1.5 22.8 22.8 0 0 1 1.61-5.83 1.55 1.55 0 0 0-.54-2.05 1.51 1.51 0 0 0-2.05.54Z"/>
            <path d="M396.46 118.35c-.07-.06-.36-.44-.16-.14-.09-.13-.16-.26-.24-.4.18.31 0 0 0-.13s-.06-.27-.09-.41 0-.16 0 0a2 2 0 0 1 0-.24 4 4 0 0 1 0-.5v-.61c0 .19 0 .21 0 0a19.5 19.5 0 0 0 .81-4.66l-2.56 1.07A18 18 0 0 1 396 114q.42.42.81.87c.11.13.12.14 0 0l.15.24c.08.15.08.16 0 0l.09.26.06.26v.54q0 .27 0 0c0 .09 0 .18-.05.27s-.1.37-.16.54-.07.19-.11.28q.09-.19 0 .06c-.09.17-.17.35-.27.53-.19.35-.4.69-.61 1a1.5 1.5 0 0 0 2.59 1.51c1.06-1.72 2-3.63 1.49-5.7a5.7 5.7 0 0 0-1.58-2.52 20 20 0 0 0-2.12-1.92 1.57 1.57 0 0 0-1.64-.31 1.51 1.51 0 0 0-.93 1.37v.9c0-.16 0 0 0 0-.07.42-.17.83-.27 1.25a17 17 0 0 0-.51 2.55 5.27 5.27 0 0 0 1.41 4.39 1.5 1.5 0 0 0 2.12-2.12Z"/>
            <path d="M511.39 36.16c10.9 9.28 22 18.39 32.54 28.06 9.81 9 19.1 18.7 26.31 29.94a88.4 88.4 0 0 1 9.4 19.14c.62 1.82 3.52 1 2.89-.8-8.89-26-29.66-44.88-50-62.22q-9.47-8.13-19.02-16.28c-1.46-1.25-3.59.87-2.12 2.12Z"/>
            <path d="m541.51 40 32 35.61c9.88 11 20.41 21.75 27 35.11 3.83 7.71 7 15.75 10.45 23.64.77 1.77 3.35.24 2.59-1.52-3.11-7.18-6.09-14.44-9.43-21.52a95.3 95.3 0 0 0-11.61-18.47C588 87.06 582.9 81.61 578 76.1l-16-17.8-18.37-20.4c-1.29-1.44-3.41.69-2.12 2.12Z"/>
            <path d="M446.38 46a116.6 116.6 0 0 0-13.47 16.12 208 208 0 0 0-11.28 19c-3.58 6.56-7.18 13.11-10.74 19.68a112.7 112.7 0 0 0-8.64 19.53 93.8 93.8 0 0 0-4.25 23.44c-.1 1.93 2.9 1.92 3 0A94.6 94.6 0 0 1 412.58 104c3.44-6.43 7-12.81 10.47-19.21s6.84-12.69 10.78-18.72a112.5 112.5 0 0 1 14.67-18 1.5 1.5 0 0 0-2.12-2.07"/>
            <path d="M421.32 58.21a103.5 103.5 0 0 0-21.59 30.84c-5.6 12.43-8.1 25.66-8.63 39.24-.32 8.37 0 16.74.3 25.1.07 1.93 3.07 1.94 3 0-.54-14.35-1.11-28.91 1.65-43.08a93.8 93.8 0 0 1 14.25-34.12 103.4 103.4 0 0 1 13.14-15.86 1.5 1.5 0 0 0-2.12-2.12"/>
            <path d="M580.26 90a3.76 3.76 0 0 0-4.62 3.53 3.67 3.67 0 0 0 1.36 2.92 5.36 5.36 0 0 0 2.85 1.1 9.42 9.42 0 0 0 5.8-1.42 3.66 3.66 0 0 0 1.94-2.76 2.54 2.54 0 0 0-1.94-2.67c-1.16-.29-2.37-.45-3.55-.67l-3.64-.69a1.54 1.54 0 0 0-1.84 1 1.52 1.52 0 0 0 1 1.85l4.87.91 1.24.24a9 9 0 0 0 1.13.22h-.07a1.2 1.2 0 0 1-.21-.24c.07.1.06.21 0-.06v-.12c0 .17-.07.24 0 .08s-.06 0 0 0v-.07c0-.1 0-.09 0 0 0 0 .17-.18 0 0l-.19.18s.23-.15 0 0l-.41.25-.45.25c-.07 0-.53.24-.31.15-.32.12-.64.23-1 .32l-.5.11h-.29c-.25.06.34 0-.11 0a8 8 0 0 1-1 0h-.43.1l-.3-.06-.41-.12c-.27-.09 0 0 0 0l-.16-.08-.2-.13c-.14-.07.05 0 .07.06l-.17-.16c-.2-.17 0 .12 0 0a.7.7 0 0 0-.1-.16c.15.2 0 .06 0-.05a1.3 1.3 0 0 0 0-.19c.08.28 0 .07 0 0v-.11c0 .2.05-.17.05-.18s.09-.2 0 0 .08-.12.1-.15c-.19.29.26-.19 0 0L579 93c.14-.09.1 0 0 0l.23-.08c.26-.1-.13 0 0 0h.18c.37 0-.27-.07.08 0a1.5 1.5 0 0 0 .8-2.9Z"/>
            <path d="M518.11 35a2.8 2.8 0 0 0 1.31 3.91c1.44.71 3.37.63 5 .67a43.6 43.6 0 0 0 10.25-1 1.51 1.51 0 0 0 0-2.89q-7.15-1.5-14.38-2.52a1.55 1.55 0 0 0-1.85 1 1.52 1.52 0 0 0 1.05 1.85q7.23 1 14.38 2.52V35.7a40 40 0 0 1-7.47.87c-1.23 0-2.46 0-3.68-.08a8.4 8.4 0 0 1-1.66-.18c-.54-.15-.1-.16-.31.19a1.5 1.5 0 0 0-2.64-1.5"/>
            <path d="M389.91 140.21a16 16 0 0 0 .24 3.4c.14 1 .34 2 .57 3.06a1.52 1.52 0 0 0 1.85 1.05 1.54 1.54 0 0 0 1-1.85c-.22-1-.41-2-.55-2.94v-.17.11c0-.11 0-.28-.05-.41s-.06-.47-.08-.71a10 10 0 0 1 0-1.54 1.5 1.5 0 1 0-3 0Z"/>
        </g>
        <g>
            <path d="m523.7 94.88 6.64 1.75a.75.75 0 0 0 .4-1.45 32 32 0 0 0-7-1.67V95a12.9 12.9 0 0 1 4.53.91l4.56 1.32 9.11 2.62a.75.75 0 0 0 .4-1.44l-9.46-2.73-4.56-1.32a12.9 12.9 0 0 0-4.58-.86.75.75 0 0 0 0 1.5 30.2 30.2 0 0 1 6.62 1.62l.4-1.45-6.64-1.75a.75.75 0 0 0-.4 1.45Z" fill="#f4bb9a"/>
            <path d="M434.92 115.47a3.4 3.4 0 0 0 .56-1.23c0-.09 0-.2.06-.29s-.05.09 0 0-.07.08 0 0c-.1.1 0 0 0 0l.14-.07.25-.11a8.8 8.8 0 0 0 2.24-1.49.75.75 0 0 0-.91-1.18c-.77.5-1.55 1-2.35 1.4a5.3 5.3 0 0 0-2 1.54.76.76 0 0 0 .27 1 .78.78 0 0 0 1-.27q0-.09 0 0l.08-.1.2-.2a.4.4 0 0 0 .1-.08l.21-.14c.31-.2.65-.37 1-.56.75-.41 1.49-.86 2.22-1.33l-.91-1.17-.27.23-.11.09-.52.37a13 13 0 0 1-1.17.61 1.59 1.59 0 0 0-.94 1.11 4 4 0 0 1-.16.58c0-.13 0 0 0 0a.7.7 0 0 1-.08.15 2 2 0 0 1-.18.29.75.75 0 0 0 .27 1 .77.77 0 0 0 1-.27Z" fill="#f4bb9a"/>
            <path d="m578.1 114.17.15.06h.08l.33.15.61.31q.63.34 1.23.75a10 10 0 0 1 1 .79 12 12 0 0 1 1 1 .76.76 0 0 0 1.06 0 .75.75 0 0 0 0-1.06 14.3 14.3 0 0 0-5.13-3.48.75.75 0 0 0-.92.53.77.77 0 0 0 .52.92Z" fill="#f4bb9a"/>
            <path d="M578 114c1.59.94 3.17 1.92 4.71 2.94a.76.76 0 0 0 1-.27.77.77 0 0 0-.27-1c-1.54-1-3.12-2-4.72-2.94a.75.75 0 0 0-1 .27.77.77 0 0 0 .27 1Z" fill="#f4bb9a"/>
            <path d="M559.88 105.88a67 67 0 0 1 6.22 2.83c.86.44 1.62-.85.76-1.3a72 72 0 0 0-6.58-3 .75.75 0 0 0-.4 1.44Z" fill="#f4bb9a"/>
            <path d="M560.58 106.35c-.06 0-.05 0 0 0h.57l.27.07a9 9 0 0 1 1 .39c.37.15.55.22.9.38a10 10 0 0 1 1 .53.75.75 0 0 0 .76-1.3 16.6 16.6 0 0 0-2.34-1.09 4.86 4.86 0 0 0-2.65-.47.75.75 0 0 0-.53.92.77.77 0 0 0 .92.52Z" fill="#f4bb9a"/>
            <path d="M391 154.2a1.5 1.5 0 0 0 0-3 1.5 1.5 0 0 0 0 3" fill="#aa765b"/>
            <path d="M390.81 153.5a.2.2 0 0 0 0 .08s0 .06 0 0a1 1 0 0 1 0 .18v.35a4.4 4.4 0 0 0 0 .63 1.53 1.53 0 0 0 .59 1.13.37.37 0 0 0 .55-.23 3.5 3.5 0 0 0 0-.91.38.38 0 1 0-.75 0 2.5 2.5 0 0 1 0 .39v.18q0 .09 0 0v.12l.56-.22c.07 0 0 0 0 0l-.06-.11a.14.14 0 0 0 0-.06 2 2 0 0 1 0-.21.2.2 0 0 1 0-.07v-.13a7 7 0 0 0-.05-1.3.37.37 0 1 0-.72.2Z" fill="#aa765b"/>
            <path d="M390.38 154.09h.06c.08.07-.06-.07-.06-.07s.12.21.05.05 0 0 0 .06v.16-.2c.06.4 0 .8.11 1.19a3.2 3.2 0 0 0 .52 1.2.83.83 0 0 0 .45.35.75.75 0 0 0 .84-1.11 2 2 0 0 1-.16-.26 1 1 0 0 1-.07-.13c-.08-.17.05.14 0 0a3 3 0 0 1-.16-.6v.2c-.09-.68 0-1.44-.56-1.95a.8.8 0 0 0-.53-.22.75.75 0 0 0-.53 1.28Z" fill="#aa765b"/>
            <path d="m391.34 153.72.07.08q-.11-.13 0 0c.07.12 0-.14 0 0l.05.15a.4.4 0 0 0 0 .11c0 .08 0 .07 0 0 .05.07 0 .25 0 .34v.49l.11 1.89a.77.77 0 0 0 .75.75.75.75 0 0 0 .75-.75l-.13-2.1a2.78 2.78 0 0 0-.58-2 .75.75 0 0 0-1.06 1.06Z" fill="#aa765b"/>
            <path d="M390.22 147a56.8 56.8 0 0 1 1.71 12.3c0 1 1.53 1 1.5 0a59.7 59.7 0 0 0-1.76-12.69.75.75 0 0 0-1.45.39" fill="#aa765b"/>
            <path d="M390.34 143.77a24 24 0 0 0 .59 5.42.75.75 0 1 0 1.44-.4 22.3 22.3 0 0 1-.53-5 .75.75 0 0 0-1.5 0Z" fill="#aa765b"/>
            <path d="m390.37 143.85.32 3.6a.78.78 0 0 0 .75.75.76.76 0 0 0 .75-.75l-.32-3.6a.76.76 0 0 0-.75-.75.75.75 0 0 0-.75.75" fill="#aa765b"/>
            <path d="M390.47 145.37c.1.56.19 1.13.27 1.69v.1q0-.1 0 0v.24c0 .13 0 .26.05.4l.09.87a.75.75 0 0 0 1.5 0c-.12-1.23-.29-2.46-.51-3.67a.75.75 0 0 0-.92-.53.78.78 0 0 0-.52.93Z" fill="#aa765b"/>
            <path d="M391.59 143.47a2 2 0 0 1 0-.35v.2a11 11 0 0 1 .24-1.12l.26-1.13a.75.75 0 0 0-1.45-.4l-.3 1.33a6.7 6.7 0 0 0-.25 1.47.77.77 0 0 0 .75.75.76.76 0 0 0 .75-.75" fill="#aa765b"/>
            <path d="M390.81 140.5a4 4 0 0 1 .15.67v-.2a2 2 0 0 1 0 .35.8.8 0 0 0 .22.53.8.8 0 0 0 .24.16.7.7 0 0 0 .29.06.73.73 0 0 0 .53-.22.75.75 0 0 0 .22-.53 5 5 0 0 0-.2-1.22.8.8 0 0 0-.35-.45.44.44 0 0 0-.27-.09.6.6 0 0 0-.3 0 .75.75 0 0 0-.45.35.78.78 0 0 0-.08.58Z"/>
            <path d="M391.11 139.45a2.46 2.46 0 0 0-.44 1.59 10 10 0 0 0 .08 1.55 27 27 0 0 0 .66 3.22.75.75 0 0 0 1.45-.4 28 28 0 0 1-.59-2.7 9 9 0 0 1-.1-1.24v-.97c0 .07 0 .05 0 0s0-.11-.05 0a.76.76 0 0 0 0-1.06.75.75 0 0 0-1.06 0Z"/>
            <path d="M391 139.4c-.93 2 0 4.31.39 6.37a.74.74 0 0 0 .92.52.75.75 0 0 0 .52-.92c-.18-.94-.45-1.86-.62-2.8a4.3 4.3 0 0 1 .09-2.41.78.78 0 0 0-.27-1 .76.76 0 0 0-1 .27Z"/>
        </g>
        <g>
            <path d="M177.34 1527.91s-21.38-21.06-24-42c-2-16 2-53 2-53s12.5-39.5 14.5-45.5 5-25.36 6-30.18-1-32.73 0-37.27 1-26.55 2-34.55 4-15 7-18 8-15 15-4 15 21 16 26 1 12.73 0 21.87-3.5 15.92.75 25.53 9.25 18.6 4.25 28.6-10 12-6 21 10.18 4.56 8.09 16.78 2.93 27.12.42 32.17 0 7.55-7 18.55-28 27-27 35-12.01 39-12.01 39" fill="#1a1a1a"/>
            <path d="M186.38 1258.86c-.54-5.45-7.54-10.45-3.54-20.45s11-23 20-27 31.17-13.1 34.59-16.05 11.88-7.46 22.65-9.7 26.76-9.25 35.76 1.75 4.89 25.43 6 32.72-3 17.33 0 26.81 12.5 19 6.5 28-3 20-3 29-3.5 31.5-3.5 48.5-1.5 48.5-1.5 58.5 1.5 13.5-1.5 18.5-12.5 3.5-20.5 3.5-25.78 0-36 2-27.29 2.5-28.89-2.5 0-2-4.29-17.47-5.32-15.53-5.32-40.53-1-32 0-43 4-21 1-35-7-24-11-30-7.46-7.58-7.46-7.58" fill="#111111"/>
            <path d="M329.84 1214.41v22.31c0 4.69-3 24.59 0 30.64s-1 11.88 0 22.47-4.73 15 1.14 21.77 8.86 10.81 10.86 16.81 1 23.79 2.47 32.4 5.18 13.48 6.85 26 3.68 21.56 4.68 34.56 0 33.28 0 47.14 2.52 18.83-2.24 29.85-8.7 25.65-12.26 25.51 2.5-21.5-2.5-35.5-14.89-20.32-21.5-27.5-14.43-13.66-19-20-8.64-7.68-2.5-15.5c5.28-6.72 3.92-19.46 3.46-25.73s-6.54-9.48-4.5-14.87 6-1.4 4-11.4-7.91-6.27-4.46-14.13 7.35-5 7.41-12a127 127 0 0 0-.5-13.55c-.45-7.36-5.45-10.36-5.45-17.36s2-4 4-12 5-9 3-14-1-15-1-18 9.71-1.1 4.86-13.55-5.13-7.73-6-19.59-6.12-20.86-2.5-24.86-14.56-14 1.53-13 14.1-1 22.1 6Z" fill="#1a1a1a"/>
            <path d="M174.13 1526.13s13.71-59.72 24.71-66.72 20-20 24-21 38-6 50-6h19.76s29.24 20 34.24 30 8 13 12 26 14.5 21.64 4.5 33.5-20.5 17.5-31.5 20.5-74 11-83 11-27-4-33-10-21.71-17.28-21.71-17.28" fill="#0a0a11"/>
            <path d="M177.84 1519.41c2-5 6-23 10-29s7-18 15-24 11-15 15-18 5-6 10-8 9-2 11-3 15-2 20-3 15.51-2 21.76 0 3.24 1 10.24 4 25 19 28 22 8 10 10 13a105.5 105.5 0 0 1 8 13c3 6 7 17 7 19v7.82s2-19 0-20.93-11-19.89-13-22.89-7-13-11-16-5-5-9-8-7-6-10-8-4.94-2.3-7-4.15-4-3.85-8-2.85-14.94-1.53-16-.26-24 3.26-24 3.26a104 104 0 0 1-11 1c-4 0-6-2-10 0s-9 7-12 12-5 9-10 15-8.66 11.37-10.33 13.19-3.67 6.81-5.67 9.81a66.6 66.6 0 0 0-6 12c-2 5-3 6-3 14.53z"/>
            <path d="M152.9 1466.89c0 3.92 12.4 47.61 17.61 52.28.11.1 25 26.86 34.69 29.55s27.94 4.65 36.29 3.67 59.51-6.84 67.93-9.41 33.42-19.57 37.42-28.57 9-20 9-25v-24.94l11 56.94s-1.66 21.47-6.33 31.24-16.67 26.76-22.67 29.76-38 15-49 16-67.11 9-83 0-40.95-27-43.95-35-11-14.61-10-20.3-.17-58.1-.09-66.9 1.1-9.32 1.1-9.32" fill="#f2f2f2"/>
            <path d="M156.84 1436.41c2-2 1.09-3.26 5.54-6.63s5.46-3.37 8.46-4.37 8-4 11-4h4s-2-10-2-14 1-5 1-9a36.5 36.5 0 0 1 1-8s-9 6-12 9l-8 8c-1 1-1-1-5 8s-4.19 9.74-5.1 14.37a58 58 0 0 0-.9 9.63Z" fill="#e6e6e6"/>
            <path d="M187.84 1381.41v-8.6c0-4.4-1-5.52 0-10a37.5 37.5 0 0 0 1-7.44s-6 6-8 9-3 5-5 8-5 3.56-5.48 6.78-4.52 9.22-4.52 11.22v6.91s4-4.88 7-6.89a87 87 0 0 1 8-5c2-.98 7-3.98 7-3.98" fill="#e6e6e6"/>
            <path d="M187.84 1323.41c0 2 1 2.49 1 6.25s1 8.75 1 10.75v6.1s-5 2.9-7 4.9a26.7 26.7 0 0 0-5 6.85 50 50 0 0 1-3 5.15s3-13 4-16a27.7 27.7 0 0 0 1-9 12.1 12.1 0 0 0-1-5s1-4 2-5 7-5 7-5" fill="#e6e6e6"/>
            <path d="M330.84 1379.41v23.53a10.16 10.16 0 0 1 5 2.47c2 2 5 1 7 6s2 7 4 11a69 69 0 0 1 4 10c1 3 1.55 3 2.78 7s2.47 10.72 2.47 10.72.25-13.85 1.25-20.22-1.5-8.88-1.5-13.19-1-7.31-1-8.31-2.62-7.19-5.31-11.09-5.69-5.91-7.69-8.91-4-5-6-6-5-3-5-3" fill="#e6e6e6"/>
            <path d="M330.84 1343.41v15.87c0 1.13-2 7.13-2 7.13s5.06 5.54 7.84 9c3 3.74 8.77 14.21 8.77 14.21l4.08 7.66s-1.31-6 0-8.94-1.31-6 0-9 .45-8.87.38-10.43-.71-3.57-.89-5.57-5.46-11.54-5.46-11.54l-7.72-5.46Z" fill="#e6e6e6"/>
            <path d="M196.84 1254.41c1 4 0 6 2 9s1 6 3 7a18.7 18.7 0 0 1 4 3 80 80 0 0 1 6-8c2-2 3-6 7-8s4-3 8-5 5-3 11-5 9-4 11-4h4.44a50.5 50.5 0 0 0-1.44-9 37 37 0 0 1-2-9c0-2-2-6-2-6l-3-3s-6 2-8 4-8.56 2.69-11.78 5.85-8.22 5.15-10.22 7.15-6 5-8 8-5 5-7 8a52 52 0 0 0-3 5" fill="#e6e6e6"/>
            <path d="M375.84 1416.41c-1-4-4-16-5-23s-10-26-12-32a121.5 121.5 0 0 0-9-20c-3-5-5-7-7-12s-2-6-5-11-2.81-7.91-4.9-9-8.1-2-8.1-2 17.26.09 21.63 2 5.37 3 8.37 4 7 1 8 0 .73-4 .73-4-5.73-2-8.73-2 1-1-9-2a131 131 0 0 0-17-1c-5 0-3 1-7-1s-3-3-8-3-3 0-9 1-4 1-10 0-5-2-10-2-7 6-6 0 3-7 4-10a10.56 10.56 0 0 0 0-6s-1-4-4-6-4-4-6-4-4-2-8-2a38 38 0 0 0-8 1s2-6-4-13-10-17-13-23-8-23-15-28-14.68-13-20.84-17-18.16-11-18.16-11c-6 0-6 0-11 2s-4 4-8 6-5-1-6 4-1 6 1 14 4 16 8 21 5 7 11 13 6 7 16 13 14 8 16 9 20.17 9.75 24.59 13.38 9.41 6.62 10.41 9.62-3 0-5 3-6 5-2 7 4 2 6 4 1.16 6.25 1.16 6.25-11.16 3.75-15.16 7.75-8 13-15 17-9.32 6.94-13.66 10a66.4 66.4 0 0 1-10.34 6 43.5 43.5 0 0 0-7 4c-3 2-6 4-7 6s-2 3-3 6-2 4-1 6 4 4 4 4l-28 37s-2 4-1 5 0 5 3 4 30-45 30-45 6-1 8-3 5-1.08 7.53-6.54 3.47-9.46 5.47-11.46 2-4 7-7 10-7 13-9 5-4 7-5 3-2 4-5 0-4 2-6 4-4 4-5 7-7 8-7 1 1 3 3a16 16 0 0 0 11 4c5 0 5-1 8-1s-3 2 7 4 8 3 14 2 9-3 11-3 6 1 7 2 7 2 11 5 9 6 10 9l2 6c1 3 1 4 4 6s2-3 3 5 1 35 4 42 4 13 6 19 4 16 5 18 0 9 6 9 12 1 13-4 2-14 1-18m-142-165c-1 2-3 1-9 3s-6-2-12-4-8-7-15-12-8-10-12-14-4-7-5-14 0-6 1.46-9 3.54-2 9.19 0 7.35 3 11.35 7l2 3c2 3 6 8 11.67 15.83s6.33 7.17 12.33 14.17 6 8 5 10m128 159c-2-1-3-5-3-11s-2-4-4-10-2-7-2-13a38.8 38.8 0 0 1 6.33 8.65c2.33 4.65 1.67 3.35 3.67 10.35s0 3 2 9-1 7-3 6"/>
            <path d="M281.7 1326.65a4 4 0 0 1-.5.07 2.7 2.7 0 0 1 .5-.07"/>
            <path d="M308 1424.08c-12.2-2.67-8.2-4.95-19.2-4.81-3 0-5.54 0-7.84-.13a59 59 0 0 1 6.84-1.73c5-1 6-1 12-2s3-10 0-11-5 0-9 0-7 1-13 4-7 2-12 2.34-9-2.34-13-2.34-18-3-16-4 6-3 10.82-5.22 10.18-4.78 16.85-5.61 5.33-1.17 13.53 0 7.8 2.83 15.8 4.83 7 0 13-4-13-10-4-12-13-9-15-9-2 1-8 3-7 2-12.51 2h-21.45c-6 0-29-2-30-3s14-2 17-4 4-1 8-3 8-2 13-5a19.3 19.3 0 0 1 9.57-2.86 26.3 26.3 0 0 0 6.07.76c2.64-.09 4.36-.9 10.36-.9s7 3 11 5 6 2 11 1 1-6 0-7-5-2-11-3-13-3-12-4 6-1 11.71-1.45 5.29.45 11.47-2.16-4.18-5.39-7.18-5.39h-14c-6 0-3 2-10 4s-4 3-7.43 3.44-3.57-.44-9.37-2.44-6.2 0-12.2 0-9-2-6-4 4-4 10-5.56 9-2.44 17.54-4.85 4.43.41 7 .51 6.41.9 10.41.9 8 3 11.24 3 6.76 1 8.76 0 0-3 1-7-2-1-10.78-3.47a28.4 28.4 0 0 0-9.27-1.3c.26-.05.61-.12 1-.23a100 100 0 0 0 11-4l-13-2s-5 2-11 4.76-5 2.24-6.46 2.7-5.57-1.46-12.57-2.46-7-3-12-3c0 0-14-2-19-2s-7-1-14 3 4 3.94 4 3.94 4 1.06 5 2.06 17 2 17 2-11 2-15 4-11 2-16 4 4 6 4 6l2 2s6 1 8 2-1 3-2 4-4 2-10 8 3 3 3 3l6 3c2 1 0 4 .31 4.83s-3.31 6.17-4.31 7.17-3 2-10 7 3 3 6 4 8 1 8.31 3.17-2.31.83-9.31 3.22-1 4.61 0 5.61a8.45 8.45 0 0 0 6 2c3 0 6 3 6 3s-5 1-8 3.34-3 4.66 0 10.66 8 0 11 0c2.81 0 16.62-.88 23.56-1.81-15.3 2.87-25 5.91-20.29 6.22-6.27-.41-10.27-.41-11.27 3.59s-2 7 5 7h12.9c9.1 0 8.1 0 20.1-1s13 0 23-1 18-2 18-2c11 0 13.11 1 18.05 0s13.47-5.67 1.24-8.33m-26.34-97.43a4 4 0 0 1-.5.07 2.7 2.7 0 0 1 .54-.07Z"/>
        </g>
    </g>
</svg>
